<?xml version="1.0" encoding="UTF-8"?>
<svg id="Layer_1" xmlns="http://www.w3.org/2000/svg" version="1.1" viewBox="0 0 1000 1000">
  <!-- Generator: Adobe Illustrator 29.5.1, SVG Export Plug-In . SVG Version: 2.1.0 Build 141)  -->
  <defs>
    <style>
      .st0 {
        fill: #76bcfe;
      }

      .st1 {
        stroke: #89bdf4;
      }

      .st1, .st2, .st3, .st4, .st5, .st6, .st7, .st8, .st9, .st10, .st11, .st12, .st13, .st14, .st15, .st16, .st17, .st18, .st19, .st20, .st21, .st22, .st23, .st24, .st25, .st26, .st27, .st28, .st29 {
        fill: none;
        stroke-width: 2px;
      }

      .st30 {
        fill: #032968;
      }

      .st2 {
        stroke: #f18147;
      }

      .st3 {
        stroke: #5eaaf4;
      }

      .st4 {
        stroke: #57a1ec;
      }

      .st5 {
        stroke: #5588c5;
      }

      .st6 {
        stroke: #043a89;
      }

      .st7 {
        stroke: #02307a;
      }

      .st8 {
        stroke: #0b72e1;
      }

      .st31 {
        fill: #01378b;
      }

      .st32 {
        fill: #0469d9;
      }

      .st9 {
        stroke: #045ac2;
      }

      .st10 {
        stroke: #82b4ec;
      }

      .st11 {
        stroke: #82a5d5;
      }

      .st12 {
        stroke: #bbdeff;
      }

      .st13 {
        stroke: #8687a1;
      }

      .st14 {
        stroke: #764c4e;
      }

      .st33 {
        fill: #fff;
      }

      .st34 {
        fill: #e86e34;
      }

      .st15 {
        stroke: #0b52a8;
      }

      .st16 {
        stroke: #8194b4;
      }

      .st17 {
        stroke: #0449a1;
      }

      .st18 {
        stroke: #7d748e;
      }

      .st19 {
        stroke: #0a59ba;
      }

      .st35 {
        fill: #a9d9ff;
      }

      .st20 {
        stroke: #5681b4;
      }

      .st21 {
        stroke: #449bf3;
      }

      .st36 {
        fill: #fa945a;
      }

      .st22 {
        stroke: #0350b2;
      }

      .st23 {
        stroke: #d4ecff;
      }

      .st37 {
        fill: #127ae8;
      }

      .st24 {
        stroke: #0b63c9;
      }

      .st38 {
        fill: #044baa;
      }

      .st25 {
        stroke: #809bc5;
      }

      .st26 {
        stroke: #7f5f61;
      }

      .st27 {
        stroke: #90cbff;
      }

      .st28 {
        stroke: #c9a49a;
      }

      .st29 {
        stroke: #d2b7ad;
      }
    </style>
  </defs>
  <g>
    <path class="st23" d="M572.02,78c.11-1.25-.37-1.99-1.42-2.22-.69-.15-1.06-.23-1.1-.24-24.8-7.98-49.47-12.64-74-13.99-94.36-5.18-188.92,29.77-260.48,91.79-31.18,27.04-57.46,60.13-79.18,95.26-16.21,26.23-28.8,54.04-37.75,83.43-6.87,22.55-11.77,43.94-14.68,64.15-3.7,25.71-4.74,52.61-3.11,80.71" vector-effect="non-scaling-stroke"/>
    <path class="st1" d="M100.3,476.89l-72.73,13.26c-.31.06-.54.33-.54.65l.02,159.44" vector-effect="non-scaling-stroke"/>
    <path class="st11" d="M27.05,650.24l-.02,35.92" vector-effect="non-scaling-stroke"/>
    <path class="st16" d="M27.03,686.16v17.28c0,.57.26,1.12.71,1.47l153.73,120.8c.23.19.37.47.37.77v90.09c0,.3.25.55.55.55l42.84-.56c.1,0,.2-.02.3-.05l142.15-37.42" vector-effect="non-scaling-stroke"/>
    <path class="st23" d="M367.68,879.09c17.47,15.43,35.63,30.09,54.48,43.99,19.24,14.18,39.67,27.21,62.18,36.09,5.52,2.18,12.47,3.92,18.13,4.64,15.08,1.91,28.94-3.03,40.74-12.36,6.33-5.01,12-10.56,16.99-16.63.03-.04.07-.07.12-.08.27-.08.42.03.45.32" vector-effect="non-scaling-stroke"/>
    <path class="st12" d="M560.77,935.06l.63,20.62c0,.32.27.58.59.57h0l13.83-.28" vector-effect="non-scaling-stroke"/>
    <path class="st23" d="M575.82,955.97l149.64.33c.39,0,.7-.31.7-.7v-.11c-3.2-19.36-7.78-45.82-13.74-79.38-7.61-42.85-15.79-89.38-24.54-139.58-.4-2.27-.26-4.02.43-5.24,10.01-17.87,15.2-36.46,15.21-57.28,0-2.63-.18-4.58-.55-5.85-.11-.38-.28-.62-.51-.73-.39-.17-.85-.02-1.02.34-.03.05-.04.11-.05.17-.17.97-.42,1.96-.76,2.97-4.38,12.94-10.93,25.47-19.66,37.59-5.12,7.13-10.73,13.49-16.84,19.08-.28.25-.71.24-.96-.04-.04-.05-.08-.1-.1-.15-.05-.09-.03-.29.06-.59,4.23-15.72,6.21-31.58,5.92-47.58-.41-23.33-4.08-45.56-11-66.71-5.83-17.86-13.94-33.93-24.33-48.2-2.41-3.32-6.16-7.66-11.23-13.03-8.66-9.14-18.5-16.12-29.52-20.93-5.75-2.51-11.64-3.61-17.69-3.3-.26.02-.47.24-.45.51,0,.16.1.3.23.38.81.48,1.49.8,2.03.96,8.57,2.58,15.93,4.96,23.48,9.79,5.61,3.58,11.22,8.21,16.84,13.88,4.33,4.37,9.71,11.09,16.13,20.14,3.04,4.28,6.17,9.74,9.39,16.37,12.62,25.99,19.15,53.54,19.6,82.67.07,4.45-.23,7.73-.88,9.84-6.09,19.51-14.07,40.3-23.94,62.37-13.56,30.32-28.42,60.21-44.57,89.68-9.75,17.78-20.07,34.7-30.98,50.75-7.53,11.09-15.69,21.18-24.49,30.27-6.23,6.45-15.43,13.32-24.64,13.91-5.27.33-10.22-.26-14.84-1.77-6.97-2.28-12.87-4.63-17.7-7.05-24.1-12.09-47.15-26.78-69.16-44.08-18.09-14.22-37.23-30.41-57.43-48.58-.36-.33-.9-.35-1.3-.06-.24.17-.64-.18-1.19-1.05" vector-effect="non-scaling-stroke"/>
    <path class="st1" d="M351.4,825.98c.14-3.19.57-6.38,1.29-9.55,3.23-14.22,11.99-28.31,22.9-37.83,9.26-8.09,20.07-12.55,32.43-13.38,2.69-.18,5.35-.33,8-.44" vector-effect="non-scaling-stroke"/>
    <path class="st11" d="M416.02,764.78c1.01-.26,1.8-.16,2.37.31" vector-effect="non-scaling-stroke"/>
    <path class="st16" d="M418.39,765.09c17.46,7.93,34.05,17.32,49.77,28.16.33.23.77.15,1-.17.04-.06.07-.13.1-.2l14.65-45.66" vector-effect="non-scaling-stroke"/>
    <path class="st11" d="M483.91,747.22l12.98-42.3" vector-effect="non-scaling-stroke"/>
    <path class="st1" d="M496.89,704.92c11.17-39.97,21.81-80.15,31.9-120.52,4.62-18.5,10.23-34.75,23.03-49.09,5.71-6.41,10.4-11.13,14.07-14.18,19.67-16.35,40.85-30.58,63.56-42.69.54-.28.95-.75,1.17-1.31,2.07-5.33,4.34-10.55,6.82-15.65,6.67-13.7,15.77-24.74,26.75-35.56,9.81-9.67,20.23-17.49,31.26-23.46,17.39-9.41,35.62-15.89,54.41-20.55,14.13-3.5,28.48-5.56,43.04-6.18" vector-effect="non-scaling-stroke"/>
    <path class="st23" d="M792.9,375.73c3.65.2,7.64,1.07,11.99,2.6" vector-effect="non-scaling-stroke"/>
    <path class="st12" d="M804.89,378.33c1.93.97,3.65,2.27,5.16,3.88,1.81,1.92,4.92,6.15,9.35,12.69,4.17,6.16,8.13,12.21,11.86,18.16.61.97,1.53,1.7,2.62,2.07l22.43,7.58" vector-effect="non-scaling-stroke"/>
    <path class="st1" d="M856.31,422.71c12.05,4.68,23.58,10.05,34.59,16.1,20.49,11.26,37.11,26.69,45.97,48.31,7.29,17.8,10.96,36.35,14.81,56.94,4.11,22,7.1,44.29,9.94,66.58" vector-effect="non-scaling-stroke"/>
    <path class="st11" d="M961.62,610.64l3.88,35.86" vector-effect="non-scaling-stroke"/>
    <path class="st16" d="M965.5,646.5l6.82,101.24c0,.12.11.22.23.22h.01c.12,0,.21-.1.21-.21l.22-101.07" vector-effect="non-scaling-stroke"/>
    <path class="st11" d="M972.99,646.68v-38.15" vector-effect="non-scaling-stroke"/>
    <path class="st1" d="M972.99,608.53v-174.44c0-.42-.28-.79-.69-.9l-101.54-26.99" vector-effect="non-scaling-stroke"/>
    <path class="st12" d="M870.76,406.2l-24.67-48.11c-.2-.39-.3-.82-.3-1.25l-.39-41.48c0-.49.18-.96.52-1.31,2.18-2.26,5.29-3.1,4.58-7.08-.62-3.48-3.81-4.94-7.01-4.93-7.07.04-14.16.07-21.28.09" vector-effect="non-scaling-stroke"/>
    <path class="st23" d="M822.21,302.13c-6.17-14.49-14.53-27.85-25.07-40.1" vector-effect="non-scaling-stroke"/>
    <path class="st16" d="M797.14,262.03c1.1-3.49,2.42-7.55,3.95-12.19,8.79-26.6,12.32-58.74,4.92-85.4-4.45-16.06-11.8-30.25-22.04-42.56-5.24-6.3-11.99-12.17-20.24-17.61-2.56-1.69-2.52-2.28-3.55-4.93-1.08-2.81-2.85-5.64-5.32-8.47-12.19-14.01-31.03-22.54-48.98-26.96-46.59-11.47-91.21-6.77-133.86,14.09" vector-effect="non-scaling-stroke"/>
    <path class="st20" d="M797.14,262.03c-1.63,4.17-3.16,8.1-4.59,11.8-3.32,8.57-7.36,16.27-10.56,24.64-.01.05-.03.09-.06.13l-7.31,13.09" vector-effect="non-scaling-stroke"/>
    <path class="st14" d="M774.62,311.69c-1.41,2.36-2.43,4.82-3.08,7.37-.07.28-.18.54-.35.78-4.56,6.59-16.87,7.36-25.22,7.75-10.58.49-21.16.69-31.74.6" vector-effect="non-scaling-stroke"/>
    <path class="st26" d="M714.23,328.19c-30.38-2.25-45.74-25.45-59.94-49.05-3.99-6.62-7.5-13.05-10.54-19.29-5.03-10.32-7.78-16.9-9.65-19.26-.08-.1-.23-.11-.32-.03-.07.06-.1.14-.08.23l1.63,6.85" vector-effect="non-scaling-stroke"/>
    <path class="st14" d="M635.33,247.64c-1.22.71-2.22.89-3.01.52-2.45-1.15-5.07-1.88-7.84-2.21" vector-effect="non-scaling-stroke"/>
    <path class="st26" d="M624.48,245.95c-2.57-6.69-5.48-13.09-8.73-19.22-.81-1.53-1.36-2.42-1.64-2.67-3.9-3.47-6.11-6.3-10.45-9.22-6.91-4.65-16.76-3.48-20.7,4.35-2.91,5.78-2.89,10.01-2.14,16.3,1.68,14.08,4.32,27.09,7.92,39.02,3.79,12.61,7.89,22.94,12.3,31,7.67,14.05,12.33,22.54,13.98,25.46,1.65,2.94,2.92,5.58,3.83,7.92,3.91,10.12,7.05,18.98,10.1,29.91,4.22,15.16,8.4,30.31,12.54,45.44" vector-effect="non-scaling-stroke"/>
    <path class="st15" d="M641.49,414.24c-2.49,3.62-7.46,5.93-11.25,7.21-9.23,3.12-18.73,4.71-28.48,4.78-18.37.13-34.26-6.19-42.45-23.33" vector-effect="non-scaling-stroke"/>
    <path class="st20" d="M559.31,402.9c-5.86-15.12-8.91-30.76-9.16-46.91-.03-1.69-.39-3.54-1.59-4.58-3.76-3.27-5.92-5.29-6.49-6.05-5.12-6.91-5.53-14.46-1.22-22.66" vector-effect="non-scaling-stroke"/>
    <path class="st14" d="M540.85,322.7c.49-.93,1.41-1.9,2.76-2.91" vector-effect="non-scaling-stroke"/>
    <path class="st26" d="M543.61,319.79c2.61,4.61,6.52,7.91,11.74,9.89.46.18.98-.05,1.16-.52,0-.02.01-.03.02-.05,4.15-12.97,6.35-19.89,6.58-20.74,2.81-10.31,4.65-22,3.91-32.85-.91-13.26-4.17-28.07-9.4-41.15-.17-.41-.63-.62-1.05-.48l-24,8.35" vector-effect="non-scaling-stroke"/>
    <path class="st20" d="M532.57,242.24l-23.17,7.38c-.58.18-.93.77-.82,1.37,1.51,8.23,4.37,15.45,8.6,21.64,4.65,6.8,9.9,12.44,18.43,11.41" vector-effect="non-scaling-stroke"/>
    <path class="st26" d="M535.61,284.04c.69.54.62,1.55-.22,3.02" vector-effect="non-scaling-stroke"/>
    <path class="st14" d="M535.39,287.06l-6.64,3.72" vector-effect="non-scaling-stroke"/>
    <path class="st20" d="M528.75,290.78c-5.03-1.73-9.49-5.04-13.36-9.93-6.41-8.09-10.73-17.32-12.94-27.7-.12-.54-.63-.91-1.18-.85-5.93.59-6.82-8.33-.91-9,.34-.04.61-.31.65-.65.04-.35.03-1.44-.03-3.28-.42-11.99,11.12-18.45,21.44-18.76" vector-effect="non-scaling-stroke"/>
    <path class="st26" d="M522.42,220.61l2.28,7.22" vector-effect="non-scaling-stroke"/>
    <path class="st20" d="M524.7,227.83c-3.1-1.52-6.4-1.53-9.89-.03-5.29,2.27-7.91,6.6-7.86,12.98,0,.38.31.69.69.69.07,0,.15,0,.22-.03l20.99-6.72" vector-effect="non-scaling-stroke"/>
    <path class="st26" d="M528.85,234.72l25.72-8.85c.29-.1.45-.41.36-.71-2.47-8.03-4.05-12.99-4.73-14.89-2.09-5.86-3.33-10.88-3.72-15.05-.69-7.5-.21-14.78,1.44-21.84.58-2.47,1.65-6.28,3.21-11.45" vector-effect="non-scaling-stroke"/>
    <path class="st14" d="M551.13,161.93l2.35-5.92c.05-.14-.01-.3-.15-.35-.09-.04-.19-.02-.26.04-4.59,3.63-10.2,4.88-16.17,5.6-4.67.57-7.72.71-9.15.43-1.69-.33-3.34-.5-4.95-.52" vector-effect="non-scaling-stroke"/>
    <path class="st20" d="M522.8,161.21c-15.8-3.45-28.67-15.97-29.88-32.16-.98-13.05,3.91-23.38,14.68-30.97,1.94-1.37,5.83-3.01,8.15-3.13,11.66-.63,23.7-1.82,34.45-5.4,2.01-.67,5.23-2.29,9.64-4.86,3.99-2.32,8.05-4.55,12.18-6.69" vector-effect="non-scaling-stroke"/>
    <path class="st24" d="M496.89,704.92c-.25-.61-.87-.22-1.84,1.17-.18.26-.45.44-.76.52l-93.12,23.42" vector-effect="non-scaling-stroke"/>
    <path class="st8" d="M401.17,730.03c-1.83-11.38-5.34-22.74-11.66-32.28-3.53-5.33-7.57-10.81-12.1-16.44-3.7-4.6-9.06-9.16-13.2-12.5-3.33-2.69-6.72-3.03-10.18-1.03-4.29,2.48-5.5,6.81-3.64,13" vector-effect="non-scaling-stroke"/>
    <path class="st24" d="M350.39,680.78l-.31,3.48" vector-effect="non-scaling-stroke"/>
    <path class="st8" d="M350.08,684.26c-11.05-9.69-22.67-18.5-34.88-26.44-8.32-5.41-16.41-9.57-24.26-12.48-5.61-2.08-14.84-3.74-20.29-.48-2.74,1.64-3.98,4.08-3.72,7.31" vector-effect="non-scaling-stroke"/>
    <path class="st24" d="M266.93,652.17l.65,3.88" vector-effect="non-scaling-stroke"/>
    <path class="st8" d="M267.58,656.05c-2.7-.21-5.94-.85-9.71-1.92-7.86-2.23-24.83-3.23-20.9,11.12" vector-effect="non-scaling-stroke"/>
    <path class="st24" d="M236.97,665.25l.67,3.35" vector-effect="non-scaling-stroke"/>
    <path class="st8" d="M237.64,668.6c-2.17-.63-4.72-.95-7.63-.95-4.63,0-9.53.34-13.11,3.18-3.49,2.76-4.5,6.53-3.03,11.31" vector-effect="non-scaling-stroke"/>
    <path class="st24" d="M213.87,682.14c.68,1.31.94,2.57.77,3.8" vector-effect="non-scaling-stroke"/>
    <path class="st8" d="M214.64,685.94c-3.69-.29-6.78,1.28-9.27,4.69-1.87,2.57-2.33,5.34-1.38,8.31" vector-effect="non-scaling-stroke"/>
    <path class="st24" d="M203.99,698.94c0,3.73.9,6.94,2.75,9.65" vector-effect="non-scaling-stroke"/>
    <path class="st8" d="M206.74,708.59c-.89,3.77.13,7.39,3.06,10.88,6.51,7.73,11.17,12.98,14,15.73,8.77,8.52,17.61,17.01,26.54,25.48" vector-effect="non-scaling-stroke"/>
    <path class="st24" d="M250.34,760.68l-50.21,12.55c-.37.09-.75.01-1.05-.21-44.64-33.52-90.6-64.86-138.09-98.93-11.11-7.97-22.43-15.92-33.94-23.85" vector-effect="non-scaling-stroke"/>
    <path class="st8" d="M110.33,536.88c-11.37.79-22.56,2.02-33.57,3.69-2.37.36-4.58,1.31-6.63,2.85-.59.45-.74,1.28-.34,1.9.77,1.19,1.81,2.22,3.13,3.1,5.72,3.8,14.83,9.57,27.33,17.31,14.37,8.91,27.44,17.09,39.21,24.55.24.15,2.24,1.34,5.99,3.57,5.82,3.45,12.34,5.19,18.8,5.06,9.83-.21,20.09-1.4,30.76-3.57" vector-effect="non-scaling-stroke"/>
    <path class="st2" d="M543.61,319.79c-5.33-8.85-7.88-18.2-7.66-28.04.05-2.17-.13-3.74-.56-4.69" vector-effect="non-scaling-stroke"/>
    <path class="st29" d="M535.61,284.04c1.21-11.87,1.59-21.47,1.16-28.79-.21-3.63-1.61-7.96-4.2-13.01" vector-effect="non-scaling-stroke"/>
    <path class="st27" d="M822.21,302.13c-3.53-.19-6.27-.01-8.24.55-2.29.65-3.54,2.43-3.76,5.34-.05.54.05,1.09.29,1.58.72,1.47,1.91,2.7,3.56,3.67,1.16.69,1.74,1.6,1.75,2.73.03,5.54.07,18.72.12,39.53,0,1.42-.35,2.83-1.02,4.08l-10.02,18.72" vector-effect="non-scaling-stroke"/>
    <path class="st3" d="M792.9,375.73l-4.12-10.39c-.45-1.12-1.35-2-2.49-2.4l-3.89-1.38" vector-effect="non-scaling-stroke"/>
    <path class="st28" d="M782.4,361.56c-1.27-3.14-2.46-6.11-3.57-8.9-1.67-4.21-3.15-10.02-4.42-17.41-1.09-6.31-1.36-10.96-.82-13.94.57-3.13.91-6.33,1.03-9.62" vector-effect="non-scaling-stroke"/>
    <path class="st2" d="M551.13,161.93c-6.84,4.18-13.22,6.38-19.14,6.61-3.45.13-7.01.28-10.7.45" vector-effect="non-scaling-stroke"/>
    <path class="st2" d="M624.48,245.95c.07.66.13,1.39.18,2.19.05.88.15,1.6.28,2.17,2.49,10.62,3.06,21.24.35,31.78-.94,3.66-2.94,7.92-5.32,10.41-1.25,1.32-3.38,3.06-6.39,5.23-.56.41-.69,1.19-.29,1.76.06.09.14.17.23.24,6.39,5.26,15.03,2.57,19.41-3.57,3.32-4.65,5.25-9.98,5.79-15.99.99-11.11-.14-21.96-3.39-32.53" vector-effect="non-scaling-stroke"/>
    <path class="st2" d="M714.23,328.19c1.94.81,3.26,1.28,3.96,1.41,8.51,1.61,17.09,2.65,25.72,3.13,5.11.28,9.19-.39,14.32-.88,1.87-.18,3.46.23,4.6,1.61,1.82,2.19,3.3,4.63,4.45,7.31,2.87,6.73,4.85,13.67,5.92,20.8" vector-effect="non-scaling-stroke"/>
    <path class="st13" d="M773.2,361.57c-1.85.21-3.86.07-5.59.23-18.64,1.75-36.28,6.29-53.99,12.1-18.67,6.13-35.57,15.56-50.7,28.27-6.72,5.64-13.09,11.75-19.11,18.33-.11.12-.29.16-.44.09-.18-.09-.29-.29-.34-.6-.26-2.01-.77-3.92-1.54-5.75" vector-effect="non-scaling-stroke"/>
    <path class="st29" d="M528.85,234.72l-4.15-6.89" vector-effect="non-scaling-stroke"/>
    <path class="st18" d="M782.4,361.56h-9.2" vector-effect="non-scaling-stroke"/>
    <path class="st28" d="M522.8,161.21l-1.51,7.78" vector-effect="non-scaling-stroke"/>
    <path class="st29" d="M521.29,168.99c-.53,4.8-1,9.64-1.43,14.53-1.11,12.69-.25,25.05,2.56,37.09" vector-effect="non-scaling-stroke"/>
    <path class="st28" d="M528.75,290.78c-3.82,4.63-5.5,9.7-5.03,15.22.35,4,1.99,7.45,4.92,10.36,3.36,3.33,7.43,5.45,12.21,6.34" vector-effect="non-scaling-stroke"/>
    <path class="st3" d="M559.31,402.9l-84.79,14.15" vector-effect="non-scaling-stroke"/>
    <path class="st4" d="M474.52,417.05c-6.12-37.87-12.17-75.75-18.14-113.63-1.23-7.81-2.23-16.65-3.82-23.19-.59-2.41-1.75-4.17-3.49-5.29-2.81-1.8-9.48-.5-13.17-.02" vector-effect="non-scaling-stroke"/>
    <path class="st5" d="M435.9,274.92c-.55-4.09-2.23-7.35-5.04-9.78-6.47-5.63-15.75-4.23-19.49,3.75-1.07,2.27-1.6,4.86-1.59,7.75" vector-effect="non-scaling-stroke"/>
    <path class="st4" d="M409.78,276.64l-17.49,1.45" vector-effect="non-scaling-stroke"/>
    <path class="st5" d="M392.29,278.09c-.48-1.28-1.01-2.65-1.58-4.11-1.95-5-6.1-8.57-11.5-9.1-8.62-.85-13.86,6.8-13.53,14.9" vector-effect="non-scaling-stroke"/>
    <path class="st4" d="M365.68,279.78l-17.69,1.7" vector-effect="non-scaling-stroke"/>
    <path class="st5" d="M347.99,281.48c-.59-2.67-1.47-5.04-2.62-7.09-2.92-5.18-9.35-7.82-15.08-6.22-6.1,1.71-9.24,8.65-9.12,14.75" vector-effect="non-scaling-stroke"/>
    <path class="st4" d="M321.17,282.92l-18.81,1.34" vector-effect="non-scaling-stroke"/>
    <path class="st5" d="M302.36,284.26c-1.44-6.15-4.43-10.55-10.57-12.11-6.68-1.69-12.69,2.07-14.9,8.5-.41,1.19-.78,3.13-1.12,5.82" vector-effect="non-scaling-stroke"/>
    <path class="st4" d="M275.77,286.47l-17.98,1.33" vector-effect="non-scaling-stroke"/>
    <path class="st5" d="M257.79,287.8c-.47-1.17-.99-2.54-1.56-4.11-2.41-6.64-7.21-9.73-14.4-9.26-7.23.47-11.49,8.4-11.47,14.85" vector-effect="non-scaling-stroke"/>
    <path class="st4" d="M230.36,289.28l-18.82,1.71" vector-effect="non-scaling-stroke"/>
    <path class="st5" d="M211.54,290.99c-1.37-5.28-3.12-9.07-7.75-11.83-2.27-1.35-4.73-1.89-7.38-1.62-7.93.81-11.66,7.92-11.69,15.39" vector-effect="non-scaling-stroke"/>
    <path class="st4" d="M184.72,292.93l-26.52,2.1" vector-effect="non-scaling-stroke"/>
    <path class="st23" d="M158.2,295.03c-2.03-1.06-4.75-1.19-8.17-.4-3.59.83-6.04,2.85-7.35,6.06-.89,2.18-1.27,4.12-1.13,5.82,1.52,18.11,2.4,28.44,2.65,30.97.03.33.02.66-.04.99-1.44,8.17-2.69,15.41-3.76,21.74,0,.02-.39,1.82-1.16,5.41s-.83,7.07-.19,10.43" vector-effect="non-scaling-stroke"/>
    <path class="st5" d="M139.05,376.05l-16.52,97.02" vector-effect="non-scaling-stroke"/>
    <path class="st3" d="M122.53,473.07l-22.23,3.82" vector-effect="non-scaling-stroke"/>
    <path class="st9" d="M250.34,760.68c1.65-.5,4.41-1.58,6.14-.66.16.08.35.02.43-.13.06-.11.05-.24-.02-.34-7.93-11.21-16.89-21.56-26.88-31.06-3.14-2.99-10.9-9.63-23.27-19.9" vector-effect="non-scaling-stroke"/>
    <path class="st24" d="M346.21,785.3c-5.61,8.09-8.94,17.06-10.01,26.92" vector-effect="non-scaling-stroke"/>
    <path class="st6" d="M336.2,812.22c-18.05-3.51-35.21-12.1-49.96-22.92-.63-.46-1.44-.62-2.21-.42-32.82,8.37-60.58,15.33-83.28,20.89-5.22,1.28-8.6-1.03-12.91-4.38-6.83-5.32-10.29-8.01-10.38-8.08-5.91-4.43-42.52-31.57-109.82-81.44-12.5-9.27-23.59-17.59-33.28-24.98-2.57-1.96-5.02-3.54-7.33-4.73" vector-effect="non-scaling-stroke"/>
    <path class="st9" d="M350.08,684.26l22.01,19.29c.31.28.79.24,1.06-.08.13-.15.2-.36.19-.56,0-.03-.09-.17-.26-.44-1.61-2.51-4.12-5.26-7.53-8.25-5.04-4.43-10.09-8.91-15.16-13.44" vector-effect="non-scaling-stroke"/>
    <path class="st9" d="M401.17,730.03l.67,25.32" vector-effect="non-scaling-stroke"/>
    <path class="st8" d="M401.84,755.35c-16.18-2.04-29.92,2.47-41.22,13.52-4.5,4.41-9.3,9.88-14.41,16.43" vector-effect="non-scaling-stroke"/>
    <path class="st9" d="M346.21,785.3v-.68c.01-.35-.27-.64-.62-.65-.18,0-.34.07-.47.2-7.99,8.38-15.18,15.83-27.97,10.49-13.49-5.63-25.6-13.95-36.33-24.98-6.87-7.07-12.98-13.57-18.32-19.51-7.44-8.28-13.63-14.71-18.56-19.28-7.44-6.9-16.07-14.42-25.1-20.62-2.79-1.92-5.75-4.09-8.88-6.51-1.8-1.4-3.79-3.01-5.97-4.82" vector-effect="non-scaling-stroke"/>
    <path class="st9" d="M214.64,685.94c12.71,4.51,24.55,10.41,35.52,17.68,5,3.31,9.81,6.66,14.43,10.04.39.29.94.2,1.23-.19.07-.1.12-.21.15-.33,0-.01-.06-.14-.19-.37-1.32-2.29-3.29-4.51-5.91-6.65-13.01-10.63-27.48-18.48-43.41-23.56-.18-.06-.34-.15-.49-.26l-1.27-1c-.22-.18-.54-.14-.72.09-.05.06-.08.13-.1.21-.03.16-.04.34,0,.54" vector-effect="non-scaling-stroke"/>
    <path class="st9" d="M237.64,668.6c16.22,4.63,31.2,11.8,44.95,21.52,2.28,1.62,4.45,2.71,6.51,3.28.2.06.41-.06.47-.27.03-.12,0-.24-.07-.34-.39-.51-.88-1.04-1.45-1.58-9.26-8.67-20.33-14.61-32.53-19.86-5.39-2.33-10.93-4.2-16.62-5.61-.31-.07-.6-.23-.84-.45-.69-.65-1.05-.66-1.09-.04" vector-effect="non-scaling-stroke"/>
    <path class="st9" d="M267.58,656.05c1.65.81,4.23,1.85,7.73,3.14,5.38,1.97,11.08,4.69,17.11,8.16,6.67,3.85,13.97,8.63,21.89,14.35.46.33,1.1.29,1.51-.11l.03-.03c.35-.34.36-.91.02-1.26-.02-.02-.04-.04-.06-.06-13.65-11.73-27.38-20.02-41.17-24.87-3.25-1.14-5.82-2.21-7.71-3.2" vector-effect="non-scaling-stroke"/>
    <path class="st22" d="M173.01,538.43c-1.49.41-2.82.69-4.01.84-25.47,3.25-40.89,5.16-46.25,5.75-3.16.34-6.32.6-9.49.77-4.57.24-3.4-5.91-2.93-8.91" vector-effect="non-scaling-stroke"/>
    <path class="st19" d="M110.33,536.88c4.73-20.54,8.79-41.81,12.2-63.81" vector-effect="non-scaling-stroke"/>
    <path class="st6" d="M483.91,747.22c-19.15,4.47-40.47,9.87-63.97,16.21-1.07.29-1.59.84-1.55,1.66" vector-effect="non-scaling-stroke"/>
    <path class="st24" d="M416.02,764.78c.54-.65.51-1.21-.09-1.68-4.3-3.39-9-5.97-14.09-7.75" vector-effect="non-scaling-stroke"/>
    <path class="st8" d="M474.52,417.05c.28,1.39.54,2.81.77,4.28,2.38,14.87,4.19,25.77,5.42,32.72,5.39,30.53,10.31,62.17,15.78,91.75,1.39,7.53-1.35,10.69-8.55,11.69-24.67,3.45-51.79,6.99-81.36,10.64-49.67,6.13-116.02,14.76-199.03,25.91-1.63.22-2.98.29-4.06.2" vector-effect="non-scaling-stroke"/>
    <path class="st17" d="M203.49,594.24c-4.97-1.63-7.85-4.98-8.62-10.06-8.34-55.17-13.15-87.39-14.43-96.65-4.77-34.35-9.47-68.7-14.1-103.07-2.91-21.57-6.17-50.97-9.8-88.21-.04-.41-.23-.66-.57-.75" vector-effect="non-scaling-stroke"/>
    <path class="st10" d="M155.97,295.5l2.23-.47" vector-effect="non-scaling-stroke"/>
    <path class="st22" d="M184.72,292.93c1.81-.89,3.83-1.23,6.05-1.02.56.06.77-.49.62-1.64" vector-effect="non-scaling-stroke"/>
    <path class="st4" d="M191.39,290.27c-.17,1.06.03,1.59.6,1.58,2.98-.06,6.17-.12,9.56-.17" vector-effect="non-scaling-stroke"/>
    <path class="st22" d="M201.55,291.68c.82,1.55,1.14,3.16.97,4.81-.04.39-.32.71-.69.79-3.37.74-6,2.35-7.89,4.83" vector-effect="non-scaling-stroke"/>
    <path class="st17" d="M193.94,302.11c-2.31,5.51-.02,10.2,5.26,12.3,7.5,3,15.65-4.78,11.91-12.34" vector-effect="non-scaling-stroke"/>
    <path class="st22" d="M211.11,302.07l.43-11.08" vector-effect="non-scaling-stroke"/>
    <path class="st22" d="M230.36,289.28c0,.14.02.27.11.39.07.09.18.14.3.13l6.02-.69" vector-effect="non-scaling-stroke"/>
    <path class="st4" d="M236.79,289.11l11.24-.76" vector-effect="non-scaling-stroke"/>
    <path class="st22" d="M248.03,288.35c.17.87.34,1.84.5,2.9.29,1.86-.06,3.1-2.02,3.78-2.06.72-3.76,1.86-5.1,3.41" vector-effect="non-scaling-stroke"/>
    <path class="st17" d="M241.41,298.44c-2.53,4.94-1.69,8.9,2.51,11.88,2.67,1.89,5.35,2.35,8.04,1.37,5.75-2.08,7.4-6.44,4.93-13.08" vector-effect="non-scaling-stroke"/>
    <path class="st22" d="M256.89,298.61l.9-10.81" vector-effect="non-scaling-stroke"/>
    <path class="st4" d="M282.45,285.81l10.37-.78" vector-effect="non-scaling-stroke"/>
    <path class="st17" d="M285.06,295.76c-2.52,5.57.09,10.64,5.5,12.34,2.05.65,4.16.56,6.33-.26,4.99-1.89,6.63-5.93,4.92-12.12" vector-effect="non-scaling-stroke"/>
    <path class="st17" d="M330.75,291.95c-4.65,8.72,4.81,16.32,12.79,11.64,3.79-2.23,5.04-6,3.76-11.32" vector-effect="non-scaling-stroke"/>
    <path class="st17" d="M376.55,287.69c-2.55,2.14-3.49,4.49-2.84,7.05,2.99,11.65,22.32,8.77,18.03-5.73" vector-effect="non-scaling-stroke"/>
    <path class="st17" d="M419.12,284.51c-4.56,5.28-1.06,12.12,5.14,13.47,7.41,1.62,13.4-4.59,11.11-12.03" vector-effect="non-scaling-stroke"/>
    <path class="st15" d="M203.49,594.24l-8.48,1.1" vector-effect="non-scaling-stroke"/>
    <path class="st17" d="M195.01,595.34c-4.75.27-8.97-.94-12.67-3.63-1.31-.95-2.17-2.11-2.58-3.49-.34-1.1-.67-2.89-.98-5.37-1.88-14.82-3.8-29.63-5.77-44.42" vector-effect="non-scaling-stroke"/>
    <path class="st7" d="M173.01,538.43c-.73-5.43-1.52-10.84-2.36-16.25-1.02-6.58-1.81-11.99-2.38-16.22-3.73-27.95-7.4-54.96-11.01-81.01-3.03-21.86-5.74-45.66-9.13-70.2-.44-3.23-.44-6.09-.4-9.25.03-2.21-.98-3.21-3.03-3" vector-effect="non-scaling-stroke"/>
    <path class="st21" d="M870.76,406.2c.63,4.29.69,7.56.18,9.79-.41,1.8-1.49,3.05-3.24,3.74-3.47,1.38-7.27,2.37-11.39,2.98" vector-effect="non-scaling-stroke"/>
    <path class="st7" d="M256.89,298.61c-1.49,3.65-4.09,5.52-7.78,5.6-1.1.02-1.96-.43-2.58-1.34-1.15-1.72-2.86-3.2-5.12-4.43" vector-effect="non-scaling-stroke"/>
    <path class="st5" d="M248.03,288.35c-.41-3.78-2.09-6.39-5.05-7.83-.85-.42-1.88-.27-2.58.37-2.47,2.26-3.67,5-3.61,8.22" vector-effect="non-scaling-stroke"/>
    <path class="st7" d="M211.11,302.07c-.56-.22-1.01.34-1.36,1.69-.11.42-.36.79-.7,1.06-2.04,1.57-4.15,2.31-6.32,2.24-.77-.03-1.51-.32-2.09-.84-1.08-.97-1.94-1.68-2.59-2.15-.71-.51-1.55-.59-2.01-.19-.15.15-.42.11-.81-.11-.2-.12-.33-.34-.32-.57,0-.56-.32-.92-.97-1.09" vector-effect="non-scaling-stroke"/>
    <path class="st5" d="M201.55,291.68c.5-1.93-.04-3.73-1.61-5.4-1.26-1.36-2.95-2.9-4.66-2.21-2.49,1-3.79,3.07-3.89,6.2" vector-effect="non-scaling-stroke"/>
    <path class="st22" d="M392.29,278.09l-.55,10.92" vector-effect="non-scaling-stroke"/>
    <path class="st7" d="M391.74,289.01c-1.76,3.32-4.49,5.06-8.2,5.21-.5.02-.98-.19-1.31-.57-2.08-2.4-.81-4.2-5.2-3.86-.25.01-.46-.18-.47-.42,0-.16.06-.31.19-.4.14-.09.26-.23.37-.42.09-.16.05-.34-.12-.53-.11-.13-.26-.24-.45-.33" vector-effect="non-scaling-stroke"/>
    <path class="st22" d="M376.55,287.69c1.43-1.23,3.22-2.12,5.37-2.68.31-.08.56-.31.65-.62.52-1.64.54-3.54.07-5.7" vector-effect="non-scaling-stroke"/>
    <path class="st5" d="M382.64,278.69c.01-2.44-1.06-4.55-3.23-6.34-5.21-4.31-7.46,3.3-7.58,7.1" vector-effect="non-scaling-stroke"/>
    <path class="st22" d="M371.83,279.45l-2.98-.17c-.22-.01-.43.03-.62.13l-1.64.84c-.28.14-.62.04-.77-.23l-.14-.24" vector-effect="non-scaling-stroke"/>
    <path class="st16" d="M155.97,295.5c-6.45-.66-10.56,1.19-12.33,5.54-.97,2.39-1.12,6.57-.46,12.54.84,7.63,1.52,15.26,2.05,22.9.15,2.14-.17,3.99-.53,6.02" vector-effect="non-scaling-stroke"/>
    <path class="st25" d="M144.7,342.5l-5.65,33.55" vector-effect="non-scaling-stroke"/>
    <path class="st22" d="M302.36,284.26l-.55,11.46" vector-effect="non-scaling-stroke"/>
    <path class="st7" d="M301.81,295.72c-1.64,2.61-3.98,4.31-7.02,5.09-2.4.62-3.9-1.73-5.76-2.88-.02-.01-.7-.24-2.05-.67-.67-.22-1.31-.72-1.92-1.5" vector-effect="non-scaling-stroke"/>
    <path class="st22" d="M285.06,295.76c.54-1.12,1.44-2.04,2.7-2.77,1.17-.67,2.65-1.25,4.43-1.72.3-.08.54-.31.65-.61.63-1.88.63-3.76-.02-5.63" vector-effect="non-scaling-stroke"/>
    <path class="st5" d="M292.82,285.03c.07-1.69-.64-3.44-2.13-5.23-4.85-5.82-8.54,2.05-8.24,6.01" vector-effect="non-scaling-stroke"/>
    <path class="st22" d="M282.45,285.81l-6.68.66" vector-effect="non-scaling-stroke"/>
    <path class="st22" d="M435.9,274.92l-.53,11.03" vector-effect="non-scaling-stroke"/>
    <path class="st7" d="M435.37,285.95c-.07-.17-.14-.28-.21-.33-.26-.15-.6-.03-.75.25-.01.03-.03.05-.04.08-1.04,2.67-3.07,4.41-6.1,5.2-2.91.77-4.57-2.09-6.07-4.08-.29-.39-.78-.58-1.26-.5l-.53.09c-.29.05-.56-.14-.62-.43-.01-.07-.01-.15,0-.22.25-.98.02-1.48-.68-1.5" vector-effect="non-scaling-stroke"/>
    <path class="st22" d="M419.12,284.51c1.59-2.4,4.34-2.41,6.79-2.95.33-.07.6-.3.71-.62.69-1.89.59-3.71-.32-5.46" vector-effect="non-scaling-stroke"/>
    <path class="st5" d="M426.3,275.48c.13-3.08-1.31-5.46-4.32-7.15-1.15-.65-2.19-.48-3.14.49-2.07,2.12-2.94,4.64-2.6,7.57" vector-effect="non-scaling-stroke"/>
    <path class="st22" d="M416.24,276.39l-6.46.25" vector-effect="non-scaling-stroke"/>
    <path class="st22" d="M347.99,281.48l-.69,10.79" vector-effect="non-scaling-stroke"/>
    <path class="st7" d="M347.3,292.27c-2.18,2.19-4.51,3.78-6.99,4.79-1.08.43-2.31.13-3.06-.75-1.2-1.39-2.05-3.87-4.46-3-.26.1-.56-.03-.66-.3,0-.02-.02-.05-.02-.07-.19-.91-.65-1.24-1.36-.99" vector-effect="non-scaling-stroke"/>
    <path class="st22" d="M330.75,291.95c1.6-2.3,3.83-3.67,6.69-4.11.49-.08.88-.45.97-.93.37-1.77.26-3.52-.35-5.25" vector-effect="non-scaling-stroke"/>
    <path class="st5" d="M338.06,281.66c-.09-2.9-1.26-5.22-3.53-6.96-1.31-1.01-2.57-1.08-3.76-.19-2.39,1.79-3.42,4.45-3.09,7.97" vector-effect="non-scaling-stroke"/>
    <path class="st22" d="M327.68,282.48l-6.51.44" vector-effect="non-scaling-stroke"/>
    <path class="st15" d="M336.2,812.22c-.17,4.14.13,9.3.9,15.49,1.25,10.17,6.2,17.13,14.85,20.86" vector-effect="non-scaling-stroke"/>
    <path class="st4" d="M382.64,278.69l-10.81.76" vector-effect="non-scaling-stroke"/>
    <path class="st4" d="M338.06,281.66l-10.38.82" vector-effect="non-scaling-stroke"/>
    <path class="st4" d="M426.3,275.48l-10.06.91" vector-effect="non-scaling-stroke"/>
    <path class="st24" d="M972.99,608.53l-11.37,2.11" vector-effect="non-scaling-stroke"/>
    <path class="st27" d="M575.82,955.97c2.75-4.4,5.46-8.72,8.13-12.97,3.12-4.95,5.75-9.33,7.88-13.12,23.93-42.63,42.59-87.69,58.3-134.99,4.79-14.4,8.26-27.65,10.43-39.75.02-.08-.03-.16-.11-.18-.05-.01-.11,0-.15.05-.65.73-1.07,1.32-1.27,1.79-1.85,4.29-4.08,8.24-6.37,13.19-13.35,28.79-24.97,52.83-34.85,72.12-13.93,27.2-29.2,54.03-47.09,79.62-1.69,2.42-4.67,6.35-8.92,11.8-.35.45-.69.96-1.03,1.53" vector-effect="non-scaling-stroke"/>
    <path class="st20" d="M367.68,879.09c-3.63-2.93-6.78-6.18-9.44-9.74-1.69-2.25-2.95-4.86-3.79-7.83-1.25-4.44-2.09-8.76-2.5-12.95" vector-effect="non-scaling-stroke"/>
    <path class="st3" d="M351.95,848.57c-.85-7.96-1.03-15.49-.55-22.59" vector-effect="non-scaling-stroke"/>
    <path class="st6" d="M972.99,646.68l-5.32,1.25c-.22.05-.45-.04-.57-.23-.58-.91-1.11-1.31-1.6-1.2" vector-effect="non-scaling-stroke"/>
    <path class="st23" d="M827.64,414.89c.36-.05.61-.39.56-.75-.02-.16-.11-.31-.23-.41-5.41-4.41-13.37-4.04-20.12-3.48-12.09,1.01-24.29,2.86-36.58,5.57-32.09,7.08-63.43,17.23-92.87,31.35-14.56,6.99-27.39,13.97-38.24,24.26-.29.27-.38.59-.27.94.1.36.47.57.83.47.06-.02.12-.04.17-.07,19.29-12,39.7-21.78,61.25-29.35,38.3-13.44,77.62-23.18,117.88-28.29.37-.05.75-.06,1.13-.04,2.36.13,4.52.06,6.49-.2" vector-effect="non-scaling-stroke"/>
    <path class="st23" d="M468.46,795.86c.06-.4-.21-.77-.6-.84-.23-.04-.47.04-.64.21-2.66,2.71-4.79,5.42-6.4,8.13-6.41,10.85-12.35,23.62-11.17,35.6.69,6.98,3.08,13.51,7.18,19.59.02.03.09.07.19.11.07.03.11.04.12.04.38.04.72-.24.76-.62v-.09c-.37-9.83.38-20.15,2.27-30.95.65-3.72,1.94-8.94,3.87-15.65,2.91-10.1,4.38-15.28,4.42-15.53" vector-effect="non-scaling-stroke"/>
    <path class="st2" d="M593.54,240.4c.52-1.6.87-2.6,1.06-3,2.59-5.74,6.97-.03,8.21,2.8,4.33,9.95,4.36,20.55,4.05,31.8,0,.06.08.43.24,1.11.12.48.6.77,1.07.66.21-.05.39-.17.51-.35,1.24-1.72,2.05-3.75,2.43-6.1,2.12-13.03-.63-30.02-11.51-38.7-2.69-2.15-6.06-2.26-6.57,1.89-.33,2.78-.33,6.06.02,9.84,0,.14.13.24.27.23.11,0,.19-.08.22-.18" vector-effect="non-scaling-stroke"/>
    <path class="st4" d="M359.19,332.92l-3.8.38" vector-effect="non-scaling-stroke"/>
    <path class="st10" d="M355.39,333.3l-171.73,14.13c-.49.04-.85.47-.81.97v.04l16.76,126.67" vector-effect="non-scaling-stroke"/>
    <path class="st4" d="M199.61,475.11l.38,3.06" vector-effect="non-scaling-stroke"/>
    <path class="st10" d="M199.99,478.17c3.78,26.89,7.61,53.67,11.5,80.33.21,1.45.56,2.88,1.05,4.27.1.28.37.45.67.42l48.6-5.62" vector-effect="non-scaling-stroke"/>
    <path class="st4" d="M261.81,557.57l3.6-.43" vector-effect="non-scaling-stroke"/>
    <path class="st10" d="M265.41,557.14l40.18-4.71" vector-effect="non-scaling-stroke"/>
    <path class="st4" d="M305.59,552.43l3.11-.35" vector-effect="non-scaling-stroke"/>
    <path class="st10" d="M308.7,552.08l80.87-9.53" vector-effect="non-scaling-stroke"/>
    <path class="st4" d="M389.57,542.55l3.2-.37" vector-effect="non-scaling-stroke"/>
    <path class="st10" d="M392.77,542.18l38.21-4.59" vector-effect="non-scaling-stroke"/>
    <path class="st4" d="M430.98,537.59l3.43-.42" vector-effect="non-scaling-stroke"/>
    <path class="st10" d="M434.41,537.17l40.2-4.82c.4-.05.69-.41.64-.8v-.05l-6.67-36.55" vector-effect="non-scaling-stroke"/>
    <path class="st4" d="M468.57,494.95l-.58-3.98" vector-effect="non-scaling-stroke"/>
    <path class="st10" d="M467.99,490.97l-13.73-79.69" vector-effect="non-scaling-stroke"/>
    <path class="st4" d="M454.26,411.28l-.65-3.83" vector-effect="non-scaling-stroke"/>
    <path class="st10" d="M453.61,407.45l-13.04-80.03c-.06-.4-.42-.69-.82-.65l-80.56,6.15" vector-effect="non-scaling-stroke"/>
    <path class="st23" d="M453.61,407.45c-2.91.48-5.81.9-8.7,1.25-4.43.53-9.51.23-14.16.78-7.03.83-12.69,1.46-16.99,1.9-.54.06-1.04-.32-1.13-.86l-6.38-37.36c-.06-.37.19-.72.56-.78h.05l38.36-3.56c.58-.06,1.01-.55,1-1.12v-.51c-.04-1.18-1.01-2.11-2.18-2.08h-.15l-37.47,3.48c-.32.03-.61-.19-.67-.52l-6.05-35.41c-.17-1-1.07-1.72-2.08-1.66l-.32.02c-.9.05-1.59.83-1.54,1.73,0,.06.01.12.02.18l6.02,35.23c.04.26-.14.51-.39.55h-.04l-35.02,3.26c-.4.03-.76-.25-.83-.64l-6.33-38.41" vector-effect="non-scaling-stroke"/>
    <path class="st23" d="M454.26,411.28l-40.14,3.63c-.37.03-.64.36-.61.72v.05l6.36,37.23c.07.42.47.72.9.67l36.67-4.22c1.05-.12,2.04.51,2.37,1.52l.48,1.48c.17.52-.12,1.08-.64,1.25-.07.02-.14.04-.21.04l-37.81,3.51c-.6.06-1.05.59-.99,1.2,0,.03,0,.05.01.08l6.23,36.52c.05.25.28.43.53.4l40.57-4.39" vector-effect="non-scaling-stroke"/>
    <path class="st23" d="M468.57,494.95l-40.03,4.19c-.57.06-.97.57-.91,1.14v.05c1.76,10.27,3.84,20.52,5.3,30.86.31,2.21.8,4.21,1.47,5.98" vector-effect="non-scaling-stroke"/>
    <path class="st23" d="M430.98,537.59l-1.08-2.93c-.05-.15-.09-.31-.12-.46l-5.77-33.82c-.09-.47-.52-.8-1-.75l-35.66,4.11c-.56.07-.97.58-.9,1.14,0,.02,0,.05.01.07,1.36,7.14,2.45,13.14,3.28,18.01.05.31.66,3.32,1.81,9.03.68,3.36,1.09,6.76,1.22,10.19" vector-effect="non-scaling-stroke"/>
    <path class="st23" d="M389.57,542.55c-1.21-4.15-1.98-7.42-2.3-9.8-1.23-9.25-2.8-18.53-4.71-27.84-.08-.4-.46-.67-.87-.63l-35.75,4.12c-.56.06-.96.57-.9,1.13v.05l5.87,35.07c.14.84-.43,1.64-1.28,1.78-.19.03-.38.03-.56-.01l-.34-.09c-.7-.18-1.22-.75-1.34-1.46l-6.07-35.56c-.08-.44-.49-.75-.94-.7l-36.66,4.23c-.52.06-.88.52-.82,1.03v.03l5.79,38.18" vector-effect="non-scaling-stroke"/>
    <path class="st23" d="M305.59,552.43l-6.48-38.8c-.07-.39-.43-.67-.83-.64-6.52.6-13.09,1.69-20.05,2.28-6.12.52-12.07,1.68-18.23,1.82-.49,0-.88.41-.88.9,0,.05,0,.1.02.16,2.57,12.87,4.66,25.86,6.27,38.99" vector-effect="non-scaling-stroke"/>
    <path class="st23" d="M261.81,557.57l-6.39-39.34c-.05-.33-.35-.56-.69-.52l-44.9,5.17c-1.08.12-2.11-.47-2.56-1.46l-.07-.16c-.39-.98.1-2.09,1.08-2.48.16-.06.33-.1.5-.12l44.69-4.67c.67-.07,1.16-.67,1.09-1.34v-.06l-5.86-38.24c-.04-.28-.29-.47-.56-.44l-48.14,4.26" vector-effect="non-scaling-stroke"/>
    <path class="st23" d="M199.61,475.11l48.07-5.14c.12,0,.2-.11.19-.23h0s-5.89-38.46-5.89-38.46c-.09-.58-.62-1-1.21-.94l-43.66,4.05c-1.02.1-1.96-.56-2.21-1.55l-.13-.53c-.16-.63.21-1.26.83-1.42.05-.01.1-.02.16-.03l44.51-5.12c.25-.03.43-.26.4-.52v-.02l-5.75-37.57c-.06-.39-.42-.67-.81-.63l-42.74,3.96c-.95.09-1.81-.57-1.97-1.51l-.14-.84c-.13-.78.39-1.53,1.17-1.66.04,0,.07-.01.11-.01l43.12-4.01c.33-.02.58-.32.55-.65v-.04l-5.55-36.18c-.12-.77.41-1.49,1.19-1.61.03,0,.05,0,.08-.01l.54-.05c.9-.09,1.72.55,1.85,1.44l5.55,36.24c.08.49.52.83,1.01.79l39.63-3.68c.25-.02.43-.24.4-.49v-.03l-6.1-36.11c-.17-1,.44-1.97,1.42-2.26h.03c.94-.23,1.87.35,2.1,1.29,0,.04.02.08.02.12l5.96,36.98c.05.29.31.49.6.46l36.55-3.39c.13-.02.22-.13.2-.26h0l-5.55-36.21c-.13-.85.44-1.64,1.28-1.78l.32-.05c.87-.15,1.7.43,1.85,1.3h0l6.2,36.33c.07.38.41.64.8.61l36.66-3.41c.29-.02.5-.28.47-.56v-.04l-6.33-38.39" vector-effect="non-scaling-stroke"/>
    <path class="st23" d="M408.33,411.68c.21-.02.36-.2.34-.41v-.03l-5.89-38.4c-.03-.2-.21-.34-.41-.32l-35.61,3.31c-.21.02-.36.2-.34.41v.03l5.89,38.4c.03.2.21.34.41.32l35.61-3.31" vector-effect="non-scaling-stroke"/>
    <path class="st27" d="M335.67,473.49l3.29-.31" vector-effect="non-scaling-stroke"/>
    <path class="st23" d="M338.96,473.18l-.19,1.03c-.09.49.23.97.72,1.06.1.02.2.02.31,0,2.13-.32,3.83-.61,5.12-.86,4.7-.93,9.72-.93,14.24-1.66,5.78-.93,11.88-1.16,17.59-1.49.3-.02.53-.28.51-.59v-.04c-.64-4.44-.89-9.09-1.85-14.49-1.54-8.77-2.68-15.01-3.42-18.71-1.29-6.51-2.35-12.75-3.16-18.72-1.73-12.76-3.84-26.69-6.32-41.79-.09-.5-.54-.85-1.05-.81l-36.38,3.38c-.12.01-.24.06-.34.13l-1.02.77c-.51.38-1.18.45-1.75.2l-2.07-.9c-.26-.11-.55-.16-.85-.13l-35.26,3.27c-.29.03-.5.29-.47.58v.03l14.62,95.46c.06.38.41.64.79.59,11.5-1.47,23.49-2.71,35.98-3.73.77-.07,1.32-.44,1.63-1.11.14-.3-.08-.69-.67-1.17" vector-effect="non-scaling-stroke"/>
    <path class="st12" d="M338.96,473.18c6.5-.06,17.03-3.42,16.27-11.41" vector-effect="non-scaling-stroke"/>
    <path class="st1" d="M355.23,461.77l-6.06-37.59" vector-effect="non-scaling-stroke"/>
    <path class="st12" d="M349.17,424.18c-.87-4.27-3.35-7.5-7.43-9.68-.54-.29-.9-.72-1.09-1.29" vector-effect="non-scaling-stroke"/>
    <path class="st1" d="M340.65,413.21l-1.46-9.86c-.04-.25.12-.49.36-.57l5.2-1.69c.92-.3,1.44-1.26,1.18-2.19l-1.31-4.78" vector-effect="non-scaling-stroke"/>
    <path class="st25" d="M344.62,394.12c-.09-.67-.43-1.49-1.04-2.46-.17-.27-.45-.45-.77-.48-2.24-.21-3.76-.28-4.56-.21-11.16.93-21.29,1.92-30.39,2.96-.62.07-1.06.63-.99,1.25,0,.08.03.15.05.22,1.44,4.23.4,9.82,7.09,9.02" vector-effect="non-scaling-stroke"/>
    <path class="st1" d="M314.01,404.42l.85.52c.27.17.45.44.49.75l1.34,10.07" vector-effect="non-scaling-stroke"/>
    <path class="st12" d="M316.69,415.76c-.05.09-.1.17-.14.24-.08.14-.19.25-.33.34-4.26,2.55-6.01,6.35-5.25,11.39" vector-effect="non-scaling-stroke"/>
    <path class="st1" d="M310.97,427.73l5.63,36.71" vector-effect="non-scaling-stroke"/>
    <path class="st12" d="M316.6,464.44c.47,2.81,2.08,5.04,4.84,6.68,4.31,2.56,9.4,2.33,14.23,2.37" vector-effect="non-scaling-stroke"/>
    <path class="st21" d="M349.17,424.18c-4.4-1.01-8.96-1.54-13.67-1.6-7.32-.09-14.37,1.18-21.15,3.81-.45.17-1.06.31-1.84.42-.94.13-1.45.43-1.54.92" vector-effect="non-scaling-stroke"/>
    <path class="st19" d="M344.62,394.12c-.97,2.99-2.18,4.52-3.62,4.59-5.18.25-14.99,1.14-29.43,2.66-.43.05-.71.02-.85-.08-.35-.25-.62-.33-.79-.24-.3.15-.41.51-.27.8.02.03.04.06.06.09.85,1.12,2,1.59,3.46,1.4.34-.04.61.05.8.26.25.25.26.53.03.82" vector-effect="non-scaling-stroke"/>
    <path class="st21" d="M340.65,413.21c.03.53-.09.77-.37.73-2.85-.47-5.78-.77-8.79-.9-4.99-.23-9.71.8-14.16,3.1-.08.04-.17.05-.26.03-.24-.05-.37-.18-.38-.41" vector-effect="non-scaling-stroke"/>
    <path class="st21" d="M355.23,461.77c-.35.39-.87.13-1.57-.78-.2-.25-.48-.43-.79-.5-12.59-3.01-24.68-1.69-36.27,3.95" vector-effect="non-scaling-stroke"/>
    <path class="st23" d="M244.83,425.54c.05.29.31.49.6.46l39.4-3.67c.3-.03.52-.3.49-.6v-.03l-5.84-38.14c-.05-.29-.31-.49-.6-.46l-39.4,3.66c-.3.03-.52.3-.49.6v.03l5.84,38.15" vector-effect="non-scaling-stroke"/>
    <path class="st23" d="M373.39,419.14c-.19.01-.34.18-.32.37v.04l6.39,37.38c.03.18.19.3.37.29l35.93-3.34c.19-.01.34-.18.32-.38v-.02l-6.39-37.39c-.03-.18-.19-.3-.37-.29l-35.93,3.34" vector-effect="non-scaling-stroke"/>
    <path class="st23" d="M291.53,465.87c.23-.02.39-.23.36-.45v-.02l-5.92-38.7c-.04-.21-.23-.36-.44-.34l-39.65,3.68c-.23.02-.39.23-.36.45v.02l5.93,38.7c.04.21.23.36.44.34l39.64-3.68" vector-effect="non-scaling-stroke"/>
    <path class="st23" d="M380.26,461.68c-.2.03-.34.21-.31.4h0l5.75,37.59c.03.19.2.32.39.3l36.8-4.24c.2-.02.34-.2.32-.39v-.02l-6.4-37.51c-.03-.19-.21-.32-.4-.3l-36.15,4.16" vector-effect="non-scaling-stroke"/>
    <path class="st23" d="M252.79,473.82c-.18.02-.31.18-.29.36v.02l5.98,39.05c.03.17.19.29.37.27l39.23-4.51c.18-.02.31-.18.29-.36v-.02l-5.98-39.05c-.03-.17-.19-.29-.37-.27l-39.23,4.51" vector-effect="non-scaling-stroke"/>
    <path class="st23" d="M377.99,475.38c-.07-.36-.4-.61-.77-.57l-36.56,4.21c-.38.04-.66.39-.61.78v.03l4.09,23.96c.07.36.4.61.77.57l36.56-4.21c.38-.04.66-.39.61-.78v-.03l-4.09-23.96" vector-effect="non-scaling-stroke"/>
    <path class="st23" d="M302.14,508.2c.06.37.39.62.76.58l36.74-4.23c.38-.05.65-.39.6-.77v-.02l-3.66-23.94c-.06-.37-.39-.62-.76-.58l-36.75,4.23c-.38.05-.65.39-.6.77v.02l3.67,23.94" vector-effect="non-scaling-stroke"/>
    <path class="st1" d="M335.1,438.87c-.12-.02-.21-.09-.26-.2l-3.09-6.58c-.07-.17-.27-.25-.45-.18-.11.05-.19.15-.2.27l-1.05,7.2c-.02.12-.09.21-.2.26l-6.58,3.09c-.17.07-.25.27-.18.45.05.11.15.19.27.2l7.2,1.05c.12.02.21.09.26.2l3.09,6.58c.07.17.27.25.45.18.11-.05.19-.15.2-.27l1.05-7.2c.02-.12.09-.21.2-.26l6.58-3.09c.17-.07.25-.27.18-.45-.05-.11-.15-.19-.27-.2l-7.2-1.05" vector-effect="non-scaling-stroke"/>
  </g>
  <path class="st30" d="M797.14,262.03c-1.63,4.17-3.16,8.1-4.59,11.8-3.32,8.57-7.36,16.27-10.56,24.64-.01.05-.03.09-.06.13l-7.31,13.09c-1.41,2.36-2.43,4.82-3.08,7.37-.07.28-.18.54-.35.78-4.56,6.59-16.87,7.36-25.22,7.75-10.58.49-21.16.69-31.74.6-30.38-2.25-45.74-25.45-59.94-49.05-3.99-6.62-7.5-13.05-10.54-19.29-5.03-10.32-7.78-16.9-9.65-19.26-.08-.1-.23-.11-.32-.03-.07.06-.1.14-.08.23l1.63,6.85c-1.22.71-2.22.89-3.01.52-2.45-1.15-5.07-1.88-7.84-2.21-2.57-6.69-5.48-13.09-8.73-19.22-.81-1.53-1.36-2.42-1.64-2.67-3.9-3.47-6.11-6.3-10.45-9.22-6.91-4.65-16.76-3.48-20.7,4.35-2.91,5.78-2.89,10.01-2.14,16.3,1.68,14.08,4.32,27.09,7.92,39.02,3.79,12.61,7.89,22.94,12.3,31,7.67,14.05,12.33,22.54,13.98,25.46,1.65,2.94,2.92,5.58,3.83,7.92,3.91,10.12,7.05,18.98,10.1,29.91,4.22,15.16,8.4,30.31,12.54,45.44-2.49,3.62-7.46,5.93-11.25,7.21-9.23,3.12-18.73,4.71-28.48,4.78-18.37.13-34.26-6.19-42.45-23.33-5.86-15.12-8.91-30.76-9.16-46.91-.03-1.69-.39-3.54-1.59-4.58-3.76-3.27-5.92-5.29-6.49-6.05-5.12-6.91-5.53-14.46-1.22-22.66.49-.93,1.41-1.9,2.76-2.91,2.61,4.61,6.52,7.91,11.74,9.89.46.18.98-.05,1.16-.52,0-.02.01-.03.02-.05,4.15-12.97,6.35-19.89,6.58-20.74,2.81-10.31,4.65-22,3.91-32.85-.91-13.26-4.17-28.07-9.4-41.15-.17-.41-.63-.62-1.05-.48l-24,8.35-23.17,7.38c-.58.18-.93.77-.82,1.37,1.51,8.23,4.37,15.45,8.6,21.64,4.65,6.8,9.9,12.44,18.43,11.41.69.54.62,1.55-.22,3.02l-6.64,3.72c-5.03-1.73-9.49-5.04-13.36-9.93-6.41-8.09-10.73-17.32-12.94-27.7-.12-.54-.63-.91-1.18-.85-5.93.59-6.82-8.33-.91-9,.34-.04.61-.31.65-.65.04-.35.03-1.44-.03-3.28-.42-11.99,11.12-18.45,21.44-18.76l2.28,7.22c-3.1-1.52-6.4-1.53-9.89-.03-5.29,2.27-7.91,6.6-7.86,12.98,0,.38.31.69.69.69.07,0,.15,0,.22-.03l20.99-6.72,25.72-8.85c.29-.1.45-.41.36-.71-2.47-8.03-4.05-12.99-4.73-14.89-2.09-5.86-3.33-10.88-3.72-15.05-.69-7.5-.21-14.78,1.44-21.84.58-2.47,1.65-6.28,3.21-11.45l2.35-5.92c.05-.14-.01-.3-.15-.35-.09-.04-.19-.02-.26.04-4.59,3.63-10.2,4.88-16.17,5.6-4.67.57-7.72.71-9.15.43-1.69-.33-3.34-.5-4.95-.52-15.8-3.45-28.67-15.97-29.88-32.16-.98-13.05,3.91-23.38,14.68-30.97,1.94-1.37,5.83-3.01,8.15-3.13,11.66-.63,23.7-1.82,34.45-5.4,2.01-.67,5.23-2.29,9.64-4.86,3.99-2.32,8.05-4.55,12.18-6.69,42.65-20.86,87.27-25.56,133.86-14.09,17.95,4.42,36.79,12.95,48.98,26.96,2.47,2.83,4.24,5.66,5.32,8.47,1.03,2.65.99,3.24,3.55,4.93,8.25,5.44,15,11.31,20.24,17.61,10.24,12.31,17.59,26.5,22.04,42.56,7.4,26.66,3.87,58.8-4.92,85.4-1.53,4.64-2.85,8.7-3.95,12.19h0Z"/>
  <path class="st35" d="M572.02,78c-4.13,2.14-8.19,4.37-12.18,6.69-4.41,2.57-7.63,4.19-9.64,4.86-10.75,3.58-22.79,4.77-34.45,5.4-2.32.12-6.21,1.76-8.15,3.13-10.77,7.59-15.66,17.92-14.68,30.97,1.21,16.19,14.08,28.71,29.88,32.16l-1.51,7.78c-.53,4.8-1,9.64-1.43,14.53-1.11,12.69-.25,25.05,2.56,37.09-10.32.31-21.86,6.77-21.44,18.76.06,1.84.07,2.93.03,3.28-.04.34-.31.61-.65.65-5.91.67-5.02,9.59.91,9,.55-.06,1.06.31,1.18.85,2.21,10.38,6.53,19.61,12.94,27.7,3.87,4.89,8.33,8.2,13.36,9.93-3.82,4.63-5.5,9.7-5.03,15.22.35,4,1.99,7.45,4.92,10.36,3.36,3.33,7.43,5.45,12.21,6.34-4.31,8.2-3.9,15.75,1.22,22.66.57.76,2.73,2.78,6.49,6.05,1.2,1.04,1.56,2.89,1.59,4.58.25,16.15,3.3,31.79,9.16,46.91l-84.79,14.15c-6.12-37.87-12.17-75.75-18.14-113.63-1.23-7.81-2.23-16.65-3.82-23.19-.59-2.41-1.75-4.17-3.49-5.29-2.81-1.8-9.48-.5-13.17-.02-.55-4.09-2.23-7.35-5.04-9.78-6.47-5.63-15.75-4.23-19.49,3.75-1.07,2.27-1.6,4.86-1.59,7.75l-17.49,1.45c-.48-1.28-1.01-2.65-1.58-4.11-1.95-5-6.1-8.57-11.5-9.1-8.62-.85-13.86,6.8-13.53,14.9l-17.69,1.7c-.59-2.67-1.47-5.04-2.62-7.09-2.92-5.18-9.35-7.82-15.08-6.22-6.1,1.71-9.24,8.65-9.12,14.75l-18.81,1.34c-1.44-6.15-4.43-10.55-10.57-12.11-6.68-1.69-12.69,2.07-14.9,8.5-.41,1.19-.78,3.13-1.12,5.82l-17.98,1.33c-.47-1.17-.99-2.54-1.56-4.11-2.41-6.64-7.21-9.73-14.4-9.26-7.23.47-11.49,8.4-11.47,14.85l-18.82,1.71c-1.37-5.28-3.12-9.07-7.75-11.83-2.27-1.35-4.73-1.89-7.38-1.62-7.93.81-11.66,7.92-11.69,15.39l-26.52,2.1c-2.03-1.06-4.75-1.19-8.17-.4-3.59.83-6.04,2.85-7.35,6.06-.89,2.18-1.27,4.12-1.13,5.82,1.52,18.11,2.4,28.44,2.65,30.97.03.33.02.66-.04.99-1.44,8.17-2.69,15.41-3.76,21.74,0,.02-.39,1.82-1.16,5.41s-.83,7.07-.19,10.43l-16.52,97.02-22.23,3.82c-1.63-28.1-.59-55,3.11-80.71,2.91-20.21,7.81-41.6,14.68-64.15,8.95-29.39,21.54-57.2,37.75-83.43,21.72-35.13,48-68.22,79.18-95.26,71.56-62.02,166.12-96.97,260.48-91.79,24.53,1.35,49.2,6.01,74,13.99.04.01.41.09,1.1.24,1.05.23,1.53.97,1.42,2.22h0Z"/>
  <path class="st34" d="M551.13,161.93c-6.84,4.18-13.22,6.38-19.14,6.61-3.45.13-7.01.28-10.7.45l1.51-7.78c1.61.02,3.26.19,4.95.52,1.43.28,4.48.14,9.15-.43,5.97-.72,11.58-1.97,16.17-5.6.11-.1.27-.08.37.04.06.08.08.18.04.27l-2.35,5.92Z"/>
  <path class="st36" d="M551.13,161.93c-1.56,5.17-2.63,8.98-3.21,11.45-1.65,7.06-2.13,14.34-1.44,21.84.39,4.17,1.63,9.19,3.72,15.05.68,1.9,2.26,6.86,4.73,14.89.09.3-.07.61-.36.71l-25.72,8.85-4.15-6.89-2.28-7.22c-2.81-12.04-3.67-24.4-2.56-37.09.43-4.89.9-9.73,1.43-14.53,3.69-.17,7.25-.32,10.7-.45,5.92-.23,12.3-2.43,19.14-6.61h0Z"/>
  <path class="st36" d="M624.48,245.95c.07.66.13,1.39.18,2.19.05.88.15,1.6.28,2.17,2.49,10.62,3.06,21.24.35,31.78-.94,3.66-2.94,7.92-5.32,10.41-1.25,1.32-3.38,3.06-6.39,5.23-.56.41-.69,1.19-.29,1.76.06.09.14.17.23.24,6.39,5.26,15.03,2.57,19.41-3.57,3.32-4.65,5.25-9.98,5.79-15.99.99-11.11-.14-21.96-3.39-32.53l-1.63-6.85c-.03-.12.05-.25.17-.28.08-.02.17,0,.23.08,1.87,2.36,4.62,8.94,9.65,19.26,3.04,6.24,6.55,12.67,10.54,19.29,14.2,23.6,29.56,46.8,59.94,49.05,1.94.81,3.26,1.28,3.96,1.41,8.51,1.61,17.09,2.65,25.72,3.13,5.11.28,9.19-.39,14.32-.88,1.87-.18,3.46.23,4.6,1.61,1.82,2.19,3.3,4.63,4.45,7.31,2.87,6.73,4.85,13.67,5.92,20.8-1.85.21-3.86.07-5.59.23-18.64,1.75-36.28,6.29-53.99,12.1-18.67,6.13-35.57,15.56-50.7,28.27-6.72,5.64-13.09,11.75-19.11,18.33-.11.12-.29.16-.44.09-.18-.09-.29-.29-.34-.6-.26-2.01-.77-3.92-1.54-5.75-4.14-15.13-8.32-30.28-12.54-45.44-3.05-10.93-6.19-19.79-10.1-29.91-.91-2.34-2.18-4.98-3.83-7.92-1.65-2.92-6.31-11.41-13.98-25.46-4.41-8.06-8.51-18.39-12.3-31-3.6-11.93-6.24-24.94-7.92-39.02-.75-6.29-.77-10.52,2.14-16.3,3.94-7.83,13.79-9,20.7-4.35,4.34,2.92,6.55,5.75,10.45,9.22.28.25.83,1.14,1.64,2.67,3.25,6.13,6.16,12.53,8.73,19.22h0ZM593.54,240.4c.52-1.6.87-2.6,1.06-3,2.59-5.74,6.97-.03,8.21,2.8,4.33,9.95,4.36,20.55,4.05,31.8,0,.06.08.43.24,1.11.12.48.6.77,1.07.66.21-.05.39-.17.51-.35,1.24-1.72,2.05-3.75,2.43-6.1,2.12-13.03-.63-30.02-11.51-38.7-2.69-2.15-6.06-2.26-6.57,1.89-.33,2.78-.33,6.06.02,9.84,0,.14.13.24.27.23.11,0,.19-.08.22-.18h0Z"/>
  <path class="st35" d="M524.7,227.83l4.15,6.89-20.99,6.72c-.37.12-.76-.08-.88-.45-.02-.07-.03-.14-.03-.21-.05-6.38,2.57-10.71,7.86-12.98,3.49-1.5,6.79-1.49,9.89.03h0Z"/>
  <path class="st34" d="M593.54,240.4c-.04.13-.18.21-.31.17-.1-.03-.17-.12-.18-.22-.35-3.78-.35-7.06-.02-9.84.51-4.15,3.88-4.04,6.57-1.89,10.88,8.68,13.63,25.67,11.51,38.7-.38,2.35-1.19,4.38-2.43,6.1-.28.4-.83.49-1.23.2-.17-.12-.3-.31-.35-.51-.16-.68-.24-1.05-.24-1.11.31-11.25.28-21.85-4.05-31.8-1.24-2.83-5.62-8.54-8.21-2.8-.19.4-.54,1.4-1.06,3h0Z"/>
  <path class="st36" d="M543.61,319.79c-5.33-8.85-7.88-18.2-7.66-28.04.05-2.17-.13-3.74-.56-4.69.84-1.47.91-2.48.22-3.02,1.21-11.87,1.59-21.47,1.16-28.79-.21-3.63-1.61-7.96-4.2-13.01l24-8.35c.42-.14.88.07,1.05.48,5.23,13.08,8.49,27.89,9.4,41.15.74,10.85-1.1,22.54-3.91,32.85-.23.85-2.43,7.77-6.58,20.74-.15.47-.65.74-1.13.59-.02,0-.03-.01-.05-.02-5.22-1.98-9.13-5.28-11.74-9.89h0Z"/>
  <path class="st35" d="M532.57,242.24c2.59,5.05,3.99,9.38,4.2,13.01.43,7.32.05,16.92-1.16,28.79-8.53,1.03-13.78-4.61-18.43-11.41-4.23-6.19-7.09-13.41-8.6-21.64-.11-.6.24-1.19.82-1.37l23.17-7.38h0Z"/>
  <path class="st34" d="M635.33,247.64c3.25,10.57,4.38,21.42,3.39,32.53-.54,6.01-2.47,11.34-5.79,15.99-4.38,6.14-13.02,8.83-19.41,3.57-.54-.44-.62-1.23-.18-1.77.07-.09.15-.16.24-.23,3.01-2.17,5.14-3.91,6.39-5.23,2.38-2.49,4.38-6.75,5.32-10.41,2.71-10.54,2.14-21.16-.35-31.78-.13-.57-.23-1.29-.28-2.17-.05-.8-.11-1.53-.18-2.19,2.77.33,5.39,1.06,7.84,2.21.79.37,1.79.19,3.01-.52h0Z"/>
  <path class="st31" d="M435.9,274.92l-.53,11.03c-.07-.17-.14-.28-.21-.33-.26-.15-.6-.03-.75.25-.01.03-.03.05-.04.08-1.04,2.67-3.07,4.41-6.1,5.2-2.91.77-4.57-2.09-6.07-4.08-.29-.39-.78-.58-1.26-.5l-.53.09c-.29.05-.56-.14-.62-.43-.01-.07-.01-.15,0-.22.25-.98.02-1.48-.68-1.5,1.59-2.4,4.34-2.41,6.79-2.95.33-.07.6-.3.71-.62.69-1.89.59-3.71-.32-5.46.13-3.08-1.31-5.46-4.32-7.15-1.15-.65-2.19-.48-3.14.49-2.07,2.12-2.94,4.64-2.6,7.57l-6.46.25c-.01-2.89.52-5.48,1.59-7.75,3.74-7.98,13.02-9.38,19.49-3.75,2.81,2.43,4.49,5.69,5.04,9.78h.01Z"/>
  <path class="st35" d="M797.14,262.03c10.54,12.25,18.9,25.61,25.07,40.1-3.53-.19-6.27-.01-8.24.55-2.29.65-3.54,2.43-3.76,5.34-.05.54.05,1.09.29,1.58.72,1.47,1.91,2.7,3.56,3.67,1.16.69,1.74,1.6,1.75,2.73.03,5.54.07,18.72.12,39.53,0,1.42-.35,2.83-1.02,4.08l-10.02,18.72c-4.35-1.53-8.34-2.4-11.99-2.6l-4.12-10.39c-.45-1.12-1.35-2-2.49-2.4l-3.89-1.38c-1.27-3.14-2.46-6.11-3.57-8.9-1.67-4.21-3.15-10.02-4.42-17.41-1.09-6.31-1.36-10.96-.82-13.94.57-3.13.91-6.33,1.03-9.62l7.31-13.09s.05-.08.06-.13c3.2-8.37,7.24-16.07,10.56-24.64,1.43-3.7,2.96-7.63,4.59-11.8h0Z"/>
  <path class="st31" d="M392.29,278.09l-.55,10.92c-1.76,3.32-4.49,5.06-8.2,5.21-.5.02-.98-.19-1.31-.57-2.08-2.4-.81-4.2-5.2-3.86-.25.01-.46-.18-.47-.42,0-.16.06-.31.19-.4.14-.09.26-.23.37-.42.09-.16.05-.34-.12-.53-.11-.13-.26-.24-.45-.33,1.43-1.23,3.22-2.12,5.37-2.68.31-.08.56-.31.65-.62.52-1.64.54-3.54.07-5.7.01-2.44-1.06-4.55-3.23-6.34-5.21-4.31-7.46,3.3-7.58,7.1l-2.98-.17c-.22-.01-.43.03-.62.13l-1.64.84c-.28.14-.62.04-.77-.23l-.14-.24c-.33-8.1,4.91-15.75,13.53-14.9,5.4.53,9.55,4.1,11.5,9.1.57,1.46,1.1,2.83,1.58,4.11h0Z"/>
  <path class="st31" d="M347.99,281.48l-.69,10.79c-2.18,2.19-4.51,3.78-6.99,4.79-1.08.43-2.31.13-3.06-.75-1.2-1.39-2.05-3.87-4.46-3-.26.1-.56-.03-.66-.3,0-.02-.02-.05-.02-.07-.19-.91-.65-1.24-1.36-.99,1.6-2.3,3.83-3.67,6.69-4.11.49-.08.88-.45.97-.93.37-1.77.26-3.52-.35-5.25-.09-2.9-1.26-5.22-3.53-6.96-1.31-1.01-2.57-1.08-3.76-.19-2.39,1.79-3.42,4.45-3.09,7.97l-6.51.44c-.12-6.1,3.02-13.04,9.12-14.75,5.73-1.6,12.16,1.04,15.08,6.22,1.15,2.05,2.03,4.42,2.62,7.09h0Z"/>
  <path class="st35" d="M426.3,275.48l-10.06.91c-.34-2.93.53-5.45,2.6-7.57.95-.97,1.99-1.14,3.14-.49,3.01,1.69,4.45,4.07,4.32,7.15h0Z"/>
  <path class="st35" d="M382.64,278.69l-10.81.76c.12-3.8,2.37-11.41,7.58-7.1,2.17,1.79,3.24,3.9,3.23,6.34Z"/>
  <path class="st31" d="M302.36,284.26l-.55,11.46c-1.64,2.61-3.98,4.31-7.02,5.09-2.4.62-3.9-1.73-5.76-2.88-.02-.01-.7-.24-2.05-.67-.67-.22-1.31-.72-1.92-1.5.54-1.12,1.44-2.04,2.7-2.77,1.17-.67,2.65-1.25,4.43-1.72.3-.08.54-.31.65-.61.63-1.88.63-3.76-.02-5.63.07-1.69-.64-3.44-2.13-5.23-4.85-5.82-8.54,2.05-8.24,6.01l-6.68.66c.34-2.69.71-4.63,1.12-5.82,2.21-6.43,8.22-10.19,14.9-8.5,6.14,1.56,9.13,5.96,10.57,12.11h0Z"/>
  <path class="st35" d="M338.06,281.66l-10.38.82c-.33-3.52.7-6.18,3.09-7.97,1.19-.89,2.45-.82,3.76.19,2.27,1.74,3.44,4.06,3.53,6.96Z"/>
  <path class="st32" d="M474.52,417.05c.28,1.39.54,2.81.77,4.28,2.38,14.87,4.19,25.77,5.42,32.72,5.39,30.53,10.31,62.17,15.78,91.75,1.39,7.53-1.35,10.69-8.55,11.69-24.67,3.45-51.79,6.99-81.36,10.64-49.67,6.13-116.02,14.76-199.03,25.91-1.63.22-2.98.29-4.06.2-4.97-1.63-7.85-4.98-8.62-10.06-8.34-55.17-13.15-87.39-14.43-96.65-4.77-34.35-9.47-68.7-14.1-103.07-2.91-21.57-6.17-50.97-9.8-88.21-.04-.41-.23-.66-.57-.75l2.23-.47,26.52-2.1c1.81-.89,3.83-1.23,6.05-1.02.56.06.77-.49.62-1.64-.17,1.06.03,1.59.6,1.58,2.98-.06,6.17-.12,9.56-.17.82,1.55,1.14,3.16.97,4.81-.04.39-.32.71-.69.79-3.37.74-6,2.35-7.89,4.83-2.31,5.51-.02,10.2,5.26,12.3,7.5,3,15.65-4.78,11.91-12.34l.43-11.08,18.82-1.71c0,.14.02.27.11.39.07.09.18.14.3.13l6.02-.69,11.24-.76c.17.87.34,1.84.5,2.9.29,1.86-.06,3.1-2.02,3.78-2.06.72-3.76,1.86-5.1,3.41-2.53,4.94-1.69,8.9,2.51,11.88,2.67,1.89,5.35,2.35,8.04,1.37,5.75-2.08,7.4-6.44,4.93-13.08l.9-10.81,17.98-1.33,6.68-.66,10.37-.78c.65,1.87.65,3.75.02,5.63-.11.3-.35.53-.65.61-1.78.47-3.26,1.05-4.43,1.72-1.26.73-2.16,1.65-2.7,2.77-2.52,5.57.09,10.64,5.5,12.34,2.05.65,4.16.56,6.33-.26,4.99-1.89,6.63-5.93,4.92-12.12l.55-11.46,18.81-1.34,6.51-.44,10.38-.82c.61,1.73.72,3.48.35,5.25-.09.48-.48.85-.97.93-2.86.44-5.09,1.81-6.69,4.11-4.65,8.72,4.81,16.32,12.79,11.64,3.79-2.23,5.04-6,3.76-11.32l.69-10.79,17.69-1.7.14.24c.15.27.49.37.77.23l1.64-.84c.19-.1.4-.14.62-.13l2.98.17,10.81-.76c.47,2.16.45,4.06-.07,5.7-.09.31-.34.54-.65.62-2.15.56-3.94,1.45-5.37,2.68-2.55,2.14-3.49,4.49-2.84,7.05,2.99,11.65,22.32,8.77,18.03-5.73l.55-10.92,17.49-1.45,6.46-.25,10.06-.91c.91,1.75,1.01,3.57.32,5.46-.11.32-.38.55-.71.62-2.45.54-5.2.55-6.79,2.95-4.56,5.28-1.06,12.12,5.14,13.47,7.41,1.62,13.4-4.59,11.11-12.03l.53-11.03c3.69-.48,10.36-1.78,13.17.02,1.74,1.12,2.9,2.88,3.49,5.29,1.59,6.54,2.59,15.38,3.82,23.19,5.97,37.88,12.02,75.76,18.14,113.63h0ZM359.19,332.92l-3.8.38-171.73,14.13c-.49.04-.85.47-.81.97v.04l16.76,126.67.38,3.06c3.78,26.89,7.61,53.67,11.5,80.33.21,1.45.56,2.88,1.05,4.27.1.28.37.45.67.42l48.6-5.62,3.6-.43,40.18-4.71,3.11-.35,80.87-9.53,3.2-.37,38.21-4.59,3.43-.42,40.2-4.82c.4-.05.69-.41.64-.8v-.05l-6.67-36.55-.58-3.98-13.73-79.69-.65-3.83-13.04-80.03c-.06-.4-.42-.69-.82-.65l-80.56,6.15h-.01Z"/>
  <path class="st31" d="M257.79,287.8l-.9,10.81c-1.49,3.65-4.09,5.52-7.78,5.6-1.1.02-1.96-.43-2.58-1.34-1.15-1.72-2.86-3.2-5.12-4.43,1.34-1.55,3.04-2.69,5.1-3.41,1.96-.68,2.31-1.92,2.02-3.78-.16-1.06-.33-2.03-.5-2.9-.41-3.78-2.09-6.39-5.05-7.83-.85-.42-1.88-.27-2.58.37-2.47,2.26-3.67,5-3.61,8.22l-6.02.69c-.12.01-.23-.04-.3-.13-.09-.12-.12-.25-.11-.39-.02-6.45,4.24-14.38,11.47-14.85,7.19-.47,11.99,2.62,14.4,9.26.57,1.57,1.09,2.94,1.56,4.11Z"/>
  <path class="st31" d="M211.54,290.99l-.43,11.08c-.56-.22-1.01.34-1.36,1.69-.11.42-.36.79-.7,1.06-2.04,1.57-4.15,2.31-6.32,2.24-.77-.03-1.51-.32-2.09-.84-1.08-.97-1.94-1.68-2.59-2.15-.71-.51-1.55-.59-2.01-.19-.15.15-.42.11-.81-.11-.2-.12-.33-.34-.32-.57,0-.56-.32-.92-.97-1.09,1.89-2.48,4.52-4.09,7.89-4.83.37-.08.65-.4.69-.79.17-1.65-.15-3.26-.97-4.81.5-1.93-.04-3.73-1.61-5.4-1.26-1.36-2.95-2.9-4.66-2.21-2.49,1-3.79,3.07-3.89,6.2.15,1.15-.06,1.7-.62,1.64-2.22-.21-4.24.13-6.05,1.02.03-7.47,3.76-14.58,11.69-15.39,2.65-.27,5.11.27,7.38,1.62,4.63,2.76,6.38,6.55,7.75,11.83h0Z"/>
  <path class="st35" d="M292.82,285.03l-10.37.78c-.3-3.96,3.39-11.83,8.24-6.01,1.49,1.79,2.2,3.54,2.13,5.23Z"/>
  <path class="st35" d="M248.03,288.35l-11.24.76c-.06-3.22,1.14-5.96,3.61-8.22.7-.64,1.73-.79,2.58-.37,2.96,1.44,4.64,4.05,5.05,7.83Z"/>
  <path class="st35" d="M201.55,291.68c-3.39.05-6.58.11-9.56.17-.57,0-.77-.52-.6-1.58.1-3.13,1.4-5.2,3.89-6.2,1.71-.69,3.4.85,4.66,2.21,1.57,1.67,2.11,3.47,1.61,5.4Z"/>
  <path class="st30" d="M435.37,285.95c2.29,7.44-3.7,13.65-11.11,12.03-6.2-1.35-9.7-8.19-5.14-13.47.7.02.93.52.68,1.5-.07.28.1.57.39.64.07.02.15.02.22,0l.53-.09c.48-.08.97.11,1.26.5,1.5,1.99,3.16,4.85,6.07,4.08,3.03-.79,5.06-2.53,6.1-5.2.12-.3.44-.47.72-.36.02,0,.05.02.07.03.07.05.14.16.21.33h0Z"/>
  <path class="st34" d="M535.39,287.06c.43.95.61,2.52.56,4.69-.22,9.84,2.33,19.19,7.66,28.04-1.35,1.01-2.27,1.98-2.76,2.91-4.78-.89-8.85-3.01-12.21-6.34-2.93-2.91-4.57-6.36-4.92-10.36-.47-5.52,1.21-10.59,5.03-15.22l6.64-3.72h0Z"/>
  <path class="st30" d="M376.55,287.69c.19.09.34.2.45.33.17.19.21.37.12.53-.11.19-.23.33-.37.42-.2.14-.26.42-.12.63.09.13.24.2.4.19,4.39-.34,3.12,1.46,5.2,3.86.33.38.81.59,1.31.57,3.71-.15,6.44-1.89,8.2-5.21,4.29,14.5-15.04,17.38-18.03,5.73-.65-2.56.29-4.91,2.84-7.05h0Z"/>
  <path class="st30" d="M347.3,292.27c1.28,5.32.03,9.09-3.76,11.32-7.98,4.68-17.44-2.92-12.79-11.64.71-.25,1.17.08,1.36.99.06.28.33.45.61.39.03,0,.05-.01.07-.02,2.41-.87,3.26,1.61,4.46,3,.75.88,1.98,1.18,3.06.75,2.48-1.01,4.81-2.6,6.99-4.79h0Z"/>
  <path class="st33" d="M158.2,295.03l-2.23.47c-6.45-.66-10.56,1.19-12.33,5.54-.97,2.39-1.12,6.57-.46,12.54.84,7.63,1.52,15.26,2.05,22.9.15,2.14-.17,3.99-.53,6.02l-5.65,33.55c-.64-3.36-.58-6.84.19-10.43s1.16-5.39,1.16-5.41c1.07-6.33,2.32-13.57,3.76-21.74.06-.33.07-.66.04-.99-.25-2.53-1.13-12.86-2.65-30.97-.14-1.7.24-3.64,1.13-5.82,1.31-3.21,3.76-5.23,7.35-6.06,3.42-.79,6.14-.66,8.17.4h0Z"/>
  <path class="st30" d="M155.97,295.5c.34.09.53.34.57.75,3.63,37.24,6.89,66.64,9.8,88.21,4.63,34.37,9.33,68.72,14.1,103.07,1.28,9.26,6.09,41.48,14.43,96.65.77,5.08,3.65,8.43,8.62,10.06l-8.48,1.1c-4.75.27-8.97-.94-12.67-3.63-1.31-.95-2.17-2.11-2.58-3.49-.34-1.1-.67-2.89-.98-5.37-1.88-14.82-3.8-29.63-5.77-44.42-.73-5.43-1.52-10.84-2.36-16.25-1.02-6.58-1.81-11.99-2.38-16.22-3.73-27.95-7.4-54.96-11.01-81.01-3.03-21.86-5.74-45.66-9.13-70.2-.44-3.23-.44-6.09-.4-9.25.03-2.21-.98-3.21-3.03-3,.36-2.03.68-3.88.53-6.02-.53-7.64-1.21-15.27-2.05-22.9-.66-5.97-.51-10.15.46-12.54,1.77-4.35,5.88-6.2,12.33-5.54h0Z"/>
  <path class="st30" d="M301.81,295.72c1.71,6.19.07,10.23-4.92,12.12-2.17.82-4.28.91-6.33.26-5.41-1.7-8.02-6.77-5.5-12.34.61.78,1.25,1.28,1.92,1.5,1.35.43,2.03.66,2.05.67,1.86,1.15,3.36,3.5,5.76,2.88,3.04-.78,5.38-2.48,7.02-5.09h0Z"/>
  <path class="st30" d="M256.89,298.61c2.47,6.64.82,11-4.93,13.08-2.69.98-5.37.52-8.04-1.37-4.2-2.98-5.04-6.94-2.51-11.88,2.26,1.23,3.97,2.71,5.12,4.43.62.91,1.48,1.36,2.58,1.34,3.69-.08,6.29-1.95,7.78-5.6h0Z"/>
  <path class="st30" d="M211.11,302.07c3.74,7.56-4.41,15.34-11.91,12.34-5.28-2.1-7.57-6.79-5.26-12.3.65.17.98.53.97,1.09,0,.23.12.45.32.57.39.22.66.26.81.11.46-.4,1.3-.32,2.01.19.65.47,1.51,1.18,2.59,2.15.58.52,1.32.81,2.09.84,2.17.07,4.28-.67,6.32-2.24.34-.27.59-.64.7-1.06.35-1.35.8-1.91,1.36-1.69Z"/>
  <path class="st0" d="M822.21,302.13c7.12-.02,14.21-.05,21.28-.09,3.2-.01,6.39,1.45,7.01,4.93.71,3.98-2.4,4.82-4.58,7.08-.34.35-.53.82-.52,1.31l.39,41.48c0,.43.1.86.3,1.25l24.67,48.11c.63,4.29.69,7.56.18,9.79-.41,1.8-1.49,3.05-3.24,3.74-3.47,1.38-7.27,2.37-11.39,2.98l-22.43-7.58c-1.09-.37-2.01-1.1-2.62-2.07-3.73-5.95-7.69-12-11.86-18.16-4.43-6.54-7.54-10.77-9.35-12.69-1.51-1.61-3.23-2.91-5.16-3.88l10.02-18.72c.67-1.25,1.02-2.66,1.02-4.08-.05-20.81-.09-33.99-.12-39.53,0-1.13-.59-2.04-1.75-2.73-1.65-.97-2.84-2.2-3.56-3.67-.24-.49-.34-1.04-.29-1.58.22-2.91,1.47-4.69,3.76-5.34,1.97-.56,4.71-.74,8.24-.55h0Z"/>
  <path class="st34" d="M774.62,311.69c-.12,3.29-.46,6.49-1.03,9.62-.54,2.98-.27,7.63.82,13.94,1.27,7.39,2.75,13.2,4.42,17.41,1.11,2.79,2.3,5.76,3.57,8.9h-9.2c-1.07-7.12-3.05-14.06-5.92-20.79-1.15-2.68-2.63-5.12-4.45-7.31-1.14-1.38-2.73-1.79-4.6-1.61-5.13.49-9.21,1.16-14.32.88-8.63-.48-17.21-1.52-25.72-3.13-.7-.13-2.02-.6-3.96-1.41,10.58.09,21.16-.11,31.74-.6,8.35-.39,20.66-1.16,25.22-7.75.17-.24.28-.5.35-.78.65-2.55,1.67-5.01,3.08-7.37h0Z"/>
  <path class="st33" d="M453.61,407.45c-2.91.48-5.81.9-8.7,1.25-4.43.53-9.51.23-14.16.78-7.03.83-12.69,1.46-16.99,1.9-.54.06-1.04-.32-1.13-.86l-6.38-37.36c-.06-.37.19-.72.56-.78h.05l38.36-3.56c.58-.06,1.01-.55,1-1.12v-.51c-.04-1.18-1.01-2.11-2.18-2.08h-.15l-37.47,3.48c-.32.03-.61-.19-.67-.52l-6.05-35.41c-.17-1-1.07-1.72-2.08-1.66l-.32.02c-.9.05-1.59.83-1.54,1.73,0,.06.01.12.02.18l6.02,35.23c.04.26-.14.51-.39.55h-.04l-35.02,3.26c-.4.03-.76-.25-.83-.64l-6.33-38.41,80.56-6.15c.4-.04.76.25.82.65l13.04,80.03h0Z"/>
  <path class="st35" d="M453.61,407.45l.65,3.83-40.14,3.63c-.37.03-.64.36-.61.72v.05l6.36,37.23c.07.42.47.72.9.67l36.67-4.22c1.05-.12,2.04.51,2.37,1.52l.48,1.48c.17.52-.12,1.08-.64,1.25-.07.02-.14.04-.21.04l-37.81,3.51c-.6.06-1.05.59-.99,1.2,0,.03,0,.05.01.08l6.23,36.52c.05.25.28.43.53.4l40.57-4.39.58,3.98-40.03,4.19c-.57.06-.97.57-.91,1.14v.05c1.76,10.27,3.84,20.52,5.3,30.86.31,2.21.8,4.21,1.47,5.98l-3.43.42-1.08-2.93c-.05-.15-.09-.31-.12-.46l-5.77-33.82c-.09-.47-.52-.8-1-.75l-35.66,4.11c-.56.07-.97.58-.9,1.14,0,.02,0,.05.01.07,1.36,7.14,2.45,13.14,3.28,18.01.05.31.66,3.32,1.81,9.03.68,3.36,1.09,6.76,1.22,10.19l-3.2.37c-1.21-4.15-1.98-7.42-2.3-9.8-1.23-9.25-2.8-18.53-4.71-27.84-.08-.4-.46-.67-.87-.63l-35.75,4.12c-.56.06-.96.57-.9,1.13v.05l5.87,35.07c.14.84-.43,1.64-1.28,1.78-.19.03-.38.03-.56-.01l-.34-.09c-.7-.18-1.22-.75-1.34-1.46l-6.07-35.56c-.08-.44-.49-.75-.94-.7l-36.66,4.23c-.52.06-.88.52-.82,1.03v.03l5.79,38.18-3.11.35-6.48-38.8c-.07-.39-.43-.67-.83-.64-6.52.6-13.09,1.69-20.05,2.28-6.12.52-12.07,1.68-18.23,1.82-.49,0-.88.41-.88.9,0,.05,0,.1.02.16,2.57,12.87,4.66,25.86,6.27,38.99l-3.6.43-6.39-39.34c-.05-.33-.35-.56-.69-.52l-44.9,5.17c-1.08.12-2.11-.47-2.56-1.46l-.07-.16c-.39-.98.1-2.09,1.08-2.48.16-.06.33-.1.5-.12l44.69-4.67c.67-.07,1.16-.67,1.09-1.34v-.06l-5.86-38.24c-.04-.28-.29-.47-.56-.44l-48.14,4.26-.38-3.06,48.07-5.14c.12,0,.2-.11.19-.23h0s-5.89-38.46-5.89-38.46c-.09-.58-.62-1-1.21-.94l-43.66,4.05c-1.02.1-1.96-.56-2.21-1.55l-.13-.53c-.16-.63.21-1.26.83-1.42.05-.01.1-.02.16-.03l44.51-5.12c.25-.03.43-.26.4-.52v-.02l-5.75-37.57c-.06-.39-.42-.67-.81-.63l-42.74,3.96c-.95.09-1.81-.57-1.97-1.51l-.14-.84c-.13-.78.39-1.53,1.17-1.66.04,0,.07-.01.11-.01l43.12-4.01c.33-.02.58-.32.55-.65v-.04l-5.55-36.18c-.12-.77.41-1.49,1.19-1.61.03,0,.05,0,.08-.01l.54-.05c.9-.09,1.72.55,1.85,1.44l5.55,36.24c.08.49.52.83,1.01.79l39.63-3.68c.25-.02.43-.24.4-.49v-.03l-6.1-36.11c-.17-1,.44-1.97,1.42-2.26h.03c.94-.23,1.87.35,2.1,1.29,0,.04.02.08.02.12l5.96,36.98c.05.29.31.49.6.46l36.55-3.39c.13-.02.22-.13.2-.26h0l-5.55-36.21c-.13-.85.44-1.64,1.28-1.78l.32-.05c.87-.15,1.7.43,1.85,1.3h0l6.2,36.33c.07.38.41.64.8.61l36.66-3.41c.29-.02.5-.28.47-.56v-.04l-6.33-38.39,3.8-.38,6.33,38.41c.07.39.43.67.83.64l35.02-3.26c.26-.02.45-.25.43-.51v-.04l-6.02-35.23c-.15-.89.45-1.74,1.34-1.89.06,0,.12-.02.18-.02l.32-.02c1.01-.06,1.91.66,2.08,1.66l6.05,35.41c.06.33.35.55.67.52l37.47-3.48c1.17-.11,2.2.75,2.31,1.92v.66c.02.57-.41,1.06-.99,1.12l-38.36,3.56c-.37.03-.65.36-.62.74v.05l6.38,37.36c.09.54.59.92,1.13.86,4.3-.44,9.96-1.07,16.99-1.9,4.65-.55,9.73-.25,14.16-.78,2.89-.35,5.79-.77,8.7-1.25h.04ZM408.33,411.68c.21-.02.36-.2.34-.41v-.03l-5.89-38.4c-.03-.2-.21-.34-.41-.32l-35.61,3.31c-.21.02-.36.2-.34.41v.03l5.89,38.4c.03.2.21.34.41.32l35.61-3.31h0ZM335.67,473.49l3.29-.31-.19,1.03c-.09.49.23.97.72,1.06.1.02.2.02.31,0,2.13-.32,3.83-.61,5.12-.86,4.7-.93,9.72-.93,14.24-1.66,5.78-.93,11.88-1.16,17.59-1.49.3-.02.53-.28.51-.59v-.04c-.64-4.44-.89-9.09-1.85-14.49-1.54-8.77-2.68-15.01-3.42-18.71-1.29-6.51-2.35-12.75-3.16-18.72-1.73-12.76-3.84-26.69-6.32-41.79-.09-.5-.54-.85-1.05-.81l-36.38,3.38c-.12.01-.24.06-.34.13l-1.02.77c-.51.38-1.18.45-1.75.2l-2.07-.9c-.26-.11-.55-.16-.85-.13l-35.26,3.27c-.29.03-.5.29-.47.58v.03l14.62,95.46c.06.38.41.64.79.59,11.5-1.47,23.49-2.71,35.98-3.73.77-.07,1.32-.44,1.63-1.11.14-.3-.08-.69-.67-1.17h0ZM244.83,425.54c.05.29.31.49.6.46l39.4-3.67c.3-.03.52-.3.49-.6v-.03l-5.84-38.14c-.05-.29-.31-.49-.6-.46l-39.4,3.66c-.3.03-.52.3-.49.6v.03l5.84,38.15ZM373.39,419.14c-.19.01-.34.18-.32.37v.04l6.39,37.38c.03.18.19.3.37.29l35.93-3.34c.19-.01.34-.18.32-.38v-.02l-6.39-37.39c-.03-.18-.19-.3-.37-.29l-35.93,3.34ZM291.53,465.87c.23-.02.39-.23.36-.45v-.02l-5.92-38.7c-.04-.21-.23-.36-.44-.34l-39.65,3.68c-.23.02-.39.23-.36.45v.02l5.93,38.7c.04.21.23.36.44.34l39.64-3.68h0ZM380.26,461.68c-.2.03-.34.21-.31.4h0l5.75,37.59c.03.19.2.32.39.3l36.8-4.24c.2-.02.34-.2.32-.39v-.02l-6.4-37.51c-.03-.19-.21-.32-.4-.3l-36.15,4.16h0ZM252.79,473.82c-.18.02-.31.18-.29.36v.02l5.98,39.05c.03.17.19.29.37.27l39.23-4.51c.18-.02.31-.18.29-.36v-.02l-5.98-39.05c-.03-.17-.19-.29-.37-.27l-39.23,4.51h0ZM377.99,475.38c-.07-.36-.4-.61-.77-.57l-36.56,4.21c-.38.04-.66.39-.61.78v.03l4.09,23.96c.07.36.4.61.77.57l36.56-4.21c.38-.04.66-.39.61-.78v-.03l-4.09-23.96ZM302.14,508.2c.06.37.39.62.76.58l36.74-4.23c.38-.05.65-.39.6-.77v-.02l-3.66-23.94c-.06-.37-.39-.62-.76-.58l-36.75,4.23c-.38.05-.65.39-.6.77v.02l3.67,23.94Z"/>
  <path class="st33" d="M355.39,333.3l6.33,38.39c.05.28-.15.55-.43.6h-.04l-36.66,3.41c-.39.03-.73-.23-.8-.61l-6.2-36.33c-.15-.87-.97-1.46-1.84-1.31h0l-.32.05c-.84.14-1.41.93-1.28,1.78l5.55,36.21c.02.13-.07.24-.2.26h0l-36.55,3.39c-.29.03-.55-.17-.6-.46l-5.96-36.98c-.16-.95-1.05-1.6-2-1.44-.04,0-.08.01-.12.02h-.03c-.98.3-1.59,1.27-1.42,2.27l6.1,36.11c.04.25-.13.48-.37.52h-.03l-39.63,3.68c-.49.04-.93-.3-1.01-.79l-5.55-36.24c-.13-.89-.95-1.53-1.85-1.44l-.54.05c-.78.07-1.35.76-1.28,1.54,0,.03,0,.05,0,.08l5.55,36.18c.05.33-.18.64-.51.69h-.04l-43.12,4.01c-.79.07-1.37.77-1.29,1.56,0,.04,0,.07,0,.11l.14.84c.16.94,1.02,1.6,1.97,1.51l42.74-3.96c.39-.04.75.24.81.63l5.75,37.57c.04.26-.13.5-.38.54h-.02l-44.51,5.12c-.64.07-1.09.65-1.02,1.29,0,.05.02.1.03.16l.13.53c.25.99,1.19,1.65,2.21,1.55l43.66-4.05c.59-.06,1.12.36,1.21.94l5.89,38.45c.02.11-.06.22-.18.24h0l-48.07,5.14-16.76-126.67c-.06-.49.28-.94.77-1.01h.04l171.73-14.13h-.01Z"/>
  <path class="st31" d="M173.01,538.43c-1.49.41-2.82.69-4.01.84-25.47,3.25-40.89,5.16-46.25,5.75-3.16.34-6.32.6-9.49.77-4.57.24-3.4-5.91-2.93-8.91,4.73-20.54,8.79-41.81,12.2-63.81l16.52-97.02,5.65-33.55c2.05-.21,3.06.79,3.03,3-.04,3.16-.04,6.02.4,9.25,3.39,24.54,6.1,48.34,9.13,70.2,3.61,26.05,7.28,53.06,11.01,81.01.57,4.23,1.36,9.64,2.38,16.22.84,5.41,1.63,10.82,2.36,16.25h0Z"/>
  <path class="st37" d="M782.4,361.56l3.89,1.38c1.14.4,2.04,1.28,2.49,2.4l4.12,10.39c-14.56.62-28.91,2.68-43.04,6.18-18.79,4.66-37.02,11.14-54.41,20.55-11.03,5.97-21.45,13.79-31.26,23.46-10.98,10.82-20.08,21.86-26.75,35.56-2.48,5.1-4.75,10.32-6.82,15.65-.22.56-.63,1.03-1.17,1.31-22.71,12.11-43.89,26.34-63.56,42.69-3.67,3.05-8.36,7.77-14.07,14.18-12.8,14.34-18.41,30.59-23.03,49.09-10.09,40.37-20.73,80.55-31.9,120.52-.25-.61-.87-.22-1.84,1.17-.18.26-.45.44-.76.52l-93.12,23.42c-1.83-11.38-5.34-22.74-11.66-32.28-3.53-5.33-7.57-10.81-12.1-16.44-3.7-4.6-9.06-9.16-13.2-12.5-3.33-2.69-6.72-3.03-10.18-1.03-4.29,2.48-5.5,6.81-3.64,13l-.31,3.48c-11.05-9.69-22.67-18.5-34.88-26.44-8.32-5.41-16.41-9.57-24.26-12.48-5.61-2.08-14.84-3.74-20.29-.48-2.74,1.64-3.98,4.08-3.72,7.31l.65,3.88c-2.7-.21-5.94-.85-9.71-1.92-7.86-2.23-24.83-3.23-20.9,11.12l.67,3.35c-2.17-.63-4.72-.95-7.63-.95-4.63,0-9.53.34-13.11,3.18-3.49,2.76-4.5,6.53-3.03,11.31.68,1.31.94,2.57.77,3.8-3.69-.29-6.78,1.28-9.27,4.69-1.87,2.57-2.33,5.34-1.38,8.31,0,3.73.9,6.94,2.75,9.65-.89,3.77.13,7.39,3.06,10.88,6.51,7.73,11.17,12.98,14,15.73,8.77,8.52,17.61,17.01,26.54,25.48l-50.21,12.55c-.37.09-.75.01-1.05-.21-44.64-33.52-90.6-64.86-138.09-98.93-11.11-7.97-22.43-15.92-33.94-23.85l-.02-159.44c0-.32.23-.59.54-.65l72.73-13.26,22.23-3.82c-3.41,22-7.47,43.27-12.2,63.81-11.37.79-22.56,2.02-33.57,3.69-2.37.36-4.58,1.31-6.63,2.85-.59.45-.74,1.28-.34,1.9.77,1.19,1.81,2.22,3.13,3.1,5.72,3.8,14.83,9.57,27.33,17.31,14.37,8.91,27.44,17.09,39.21,24.55.24.15,2.24,1.34,5.99,3.57,5.82,3.45,12.34,5.19,18.8,5.06,9.83-.21,20.09-1.4,30.76-3.57l8.48-1.1c1.08.09,2.43.02,4.06-.2,83.01-11.15,149.36-19.78,199.03-25.91,29.57-3.65,56.69-7.19,81.36-10.64,7.2-1,9.94-4.16,8.55-11.69-5.47-29.58-10.39-61.22-15.78-91.75-1.23-6.95-3.04-17.85-5.42-32.72-.23-1.47-.49-2.89-.77-4.28l84.79-14.15c8.19,17.14,24.08,23.46,42.45,23.33,9.75-.07,19.25-1.66,28.48-4.78,3.79-1.28,8.76-3.59,11.25-7.21.77,1.83,1.28,3.74,1.54,5.75.05.31.16.51.34.6.15.07.33.03.44-.09,6.02-6.58,12.39-12.69,19.11-18.33,15.13-12.71,32.03-22.14,50.7-28.27,17.71-5.81,35.35-10.35,53.99-12.1,1.73-.16,3.74-.02,5.59-.23h9.2Z"/>
  <path class="st33" d="M408.33,411.68l-35.61,3.31c-.2.02-.38-.12-.41-.32l-5.89-38.4c-.03-.21.11-.4.31-.44h.03l35.61-3.31c.2-.02.38.12.41.32l5.89,38.4c.03.21-.11.4-.31.44h-.03,0Z"/>
  <path class="st33" d="M338.96,473.18c6.5-.06,17.03-3.42,16.27-11.41l-6.06-37.59c-.87-4.27-3.35-7.5-7.43-9.68-.54-.29-.9-.72-1.09-1.29l-1.46-9.86c-.04-.25.12-.49.36-.57l5.2-1.69c.92-.3,1.44-1.26,1.18-2.19l-1.31-4.78c-.09-.67-.43-1.49-1.04-2.46-.17-.27-.45-.45-.77-.48-2.24-.21-3.76-.28-4.56-.21-11.16.93-21.29,1.92-30.39,2.96-.62.07-1.06.63-.99,1.25,0,.08.03.15.05.22,1.44,4.23.4,9.82,7.09,9.02l.85.52c.27.17.45.44.49.75l1.34,10.07c-.05.09-.1.17-.14.24-.08.14-.19.25-.33.34-4.26,2.55-6.01,6.35-5.25,11.39l5.63,36.71c.47,2.81,2.08,5.04,4.84,6.68,4.31,2.56,9.4,2.33,14.23,2.37.59.48.81.87.67,1.17-.31.67-.86,1.04-1.63,1.11-12.49,1.02-24.48,2.26-35.98,3.73-.38.05-.73-.21-.79-.59l-14.62-95.46c-.05-.29.15-.56.44-.61h.03l35.26-3.27c.3-.03.59.02.85.13l2.07.9c.57.25,1.24.18,1.75-.2l1.02-.77c.1-.07.22-.12.34-.13l36.38-3.38c.51-.04.96.31,1.05.81,2.48,15.1,4.59,29.03,6.32,41.79.81,5.97,1.87,12.21,3.16,18.72.74,3.7,1.88,9.94,3.42,18.71.96,5.4,1.21,10.05,1.85,14.49.04.31-.17.59-.47.63h-.04c-5.71.33-11.81.56-17.59,1.49-4.52.73-9.54.73-14.24,1.66-1.29.25-2.99.54-5.12.86-.5.08-.96-.27-1.04-.76-.02-.1-.01-.21,0-.31l.19-1.03h0Z"/>
  <path class="st33" d="M244.83,425.54l-5.84-38.15c-.05-.3.16-.58.46-.63h.03l39.4-3.66c.29-.03.55.17.6.46l5.84,38.14c.05.3-.16.58-.46.63h-.03l-39.4,3.67c-.29.03-.55-.17-.6-.46h0Z"/>
  <path class="st31" d="M344.62,394.12c-.97,2.99-2.18,4.52-3.62,4.59-5.18.25-14.99,1.14-29.43,2.66-.43.05-.71.02-.85-.08-.35-.25-.62-.33-.79-.24-.3.15-.41.51-.27.8.02.03.04.06.06.09.85,1.12,2,1.59,3.46,1.4.34-.04.61.05.8.26.25.25.26.53.03.82-6.69.8-5.65-4.79-7.09-9.02-.2-.59.12-1.22.72-1.42.07-.02.15-.04.22-.05,9.1-1.04,19.23-2.03,30.39-2.96.8-.07,2.32,0,4.56.21.32.03.6.21.77.48.61.97.95,1.79,1.04,2.46h0Z"/>
  <path class="st37" d="M340.65,413.21c.03.53-.09.77-.37.73-2.85-.47-5.78-.77-8.79-.9-4.99-.23-9.71.8-14.16,3.1-.08.04-.17.05-.26.03-.24-.05-.37-.18-.38-.41l-1.34-10.07c-.04-.31-.22-.58-.49-.75l-.85-.52c.23-.29.22-.57-.03-.82-.19-.21-.46-.3-.8-.26-1.46.19-2.61-.28-3.46-1.4-.2-.26-.15-.63.12-.83.03-.02.06-.04.09-.06.17-.09.44,0,.79.24.14.1.42.13.85.08,14.44-1.52,24.25-2.41,29.43-2.66,1.44-.07,2.65-1.6,3.62-4.59l1.31,4.78c.26.93-.26,1.89-1.18,2.19l-5.2,1.69c-.24.08-.4.32-.36.57l1.46,9.86Z"/>
  <path class="st37" d="M870.76,406.2l101.54,26.99c.41.11.69.48.69.9v174.44l-11.37,2.11c-2.84-22.29-5.83-44.58-9.94-66.58-3.85-20.59-7.52-39.14-14.81-56.94-8.86-21.62-25.48-37.05-45.97-48.31-11.01-6.05-22.54-11.42-34.59-16.1,4.12-.61,7.92-1.6,11.39-2.98,1.75-.69,2.83-1.94,3.24-3.74.51-2.23.45-5.5-.18-9.79h0Z"/>
  <path class="st35" d="M827.64,414.89c-1.97.26-4.13.33-6.49.2-.38-.02-.76,0-1.13.04-40.26,5.11-79.58,14.85-117.88,28.29-21.55,7.57-41.96,17.35-61.25,29.35-.32.19-.73.09-.92-.23-.03-.05-.06-.11-.08-.17-.11-.35-.02-.67.27-.94,10.85-10.29,23.68-17.27,38.24-24.26,29.44-14.12,60.78-24.27,92.87-31.35,12.29-2.71,24.49-4.56,36.58-5.57,6.75-.56,14.71-.93,20.12,3.48.28.23.32.65.08.93-.1.13-.25.21-.41.23h0Z"/>
  <path class="st33" d="M454.26,411.28l13.73,79.69-40.57,4.39c-.25.03-.48-.15-.53-.4l-6.23-36.52c-.1-.6.3-1.17.9-1.27.03,0,.05,0,.08-.01l37.81-3.51c.54-.05.94-.53.89-1.08,0-.07-.02-.14-.04-.21l-.48-1.48c-.33-1.01-1.32-1.64-2.37-1.52l-36.67,4.22c-.43.05-.83-.25-.9-.67l-6.36-37.23c-.06-.36.18-.7.55-.76h.05l40.14-3.63h0Z"/>
  <path class="st0" d="M340.65,413.21c.19.57.55,1,1.09,1.29,4.08,2.18,6.56,5.41,7.43,9.68-4.4-1.01-8.96-1.54-13.67-1.6-7.32-.09-14.37,1.18-21.15,3.81-.45.17-1.06.31-1.84.42-.94.13-1.45.43-1.54.92-.76-5.04.99-8.84,5.25-11.39.14-.09.25-.2.33-.34.04-.07.09-.15.14-.24.01.23.14.36.38.41.09.02.18,0,.26-.03,4.45-2.3,9.17-3.33,14.16-3.1,3.01.13,5.94.43,8.79.9.28.04.4-.2.37-.73Z"/>
  <path class="st33" d="M373.39,419.14l35.93-3.34c.18-.01.34.11.37.29l6.39,37.39c.03.19-.1.37-.3.4h-.02l-35.93,3.34c-.18.01-.34-.11-.37-.29l-6.39-37.38c-.03-.19.09-.37.28-.41h.04,0Z"/>
  <path class="st37" d="M349.17,424.18l6.06,37.59c-.35.39-.87.13-1.57-.78-.2-.25-.48-.43-.79-.5-12.59-3.01-24.68-1.69-36.27,3.95l-5.63-36.71c.09-.49.6-.79,1.54-.92.78-.11,1.39-.25,1.84-.42,6.78-2.63,13.83-3.9,21.15-3.81,4.71.06,9.27.59,13.67,1.6ZM335.1,438.87c-.12-.02-.21-.09-.26-.2l-3.09-6.58c-.07-.17-.27-.25-.45-.18-.11.05-.19.15-.2.27l-1.05,7.2c-.02.12-.09.21-.2.26l-6.58,3.09c-.17.07-.25.27-.18.45.05.11.15.19.27.2l7.2,1.05c.12.02.21.09.26.2l3.09,6.58c.07.17.27.25.45.18.11-.05.19-.15.2-.27l1.05-7.2c.02-.12.09-.21.2-.26l6.58-3.09c.17-.07.25-.27.18-.45-.05-.11-.15-.19-.27-.2l-7.2-1.05Z"/>
  <path class="st33" d="M291.53,465.87l-39.64,3.68c-.21.02-.4-.13-.44-.34l-5.93-38.7c-.03-.22.12-.43.34-.47h.02l39.65-3.68c.21-.02.4.13.44.34l5.92,38.7c.03.22-.12.43-.34.47h-.02Z"/>
  <path class="st33" d="M335.1,438.87l7.2,1.05c.19.02.32.19.29.38-.02.12-.09.22-.2.27l-6.58,3.09c-.11.05-.18.14-.2.26l-1.05,7.2c-.02.19-.19.32-.38.29-.12-.02-.22-.09-.27-.2l-3.09-6.58c-.05-.11-.14-.18-.26-.2l-7.2-1.05c-.19-.02-.32-.19-.29-.38.02-.12.09-.22.2-.27l6.58-3.09c.11-.05.18-.14.2-.26l1.05-7.2c.02-.19.19-.32.38-.29.12.02.22.09.27.2l3.09,6.58c.05.11.14.18.26.2Z"/>
  <path class="st33" d="M380.26,461.68l36.15-4.16c.19-.02.37.11.4.3l6.4,37.51c.03.2-.11.38-.3.41h-.02l-36.8,4.24c-.19.02-.36-.11-.39-.3l-5.75-37.59c-.03-.2.11-.38.3-.41h.01Z"/>
  <path class="st0" d="M355.23,461.77c.76,7.99-9.77,11.35-16.27,11.41l-3.29.31c-4.83-.04-9.92.19-14.23-2.37-2.76-1.64-4.37-3.87-4.84-6.68,11.59-5.64,23.68-6.96,36.27-3.95.31.07.59.25.79.5.7.91,1.22,1.17,1.57.78Z"/>
  <path class="st33" d="M252.79,473.82l39.23-4.51c.18-.02.34.1.37.27l5.98,39.05c.03.18-.09.35-.27.38h-.02l-39.23,4.51c-.18.02-.34-.1-.37-.27l-5.98-39.05c-.03-.18.09-.35.27-.38h.02,0Z"/>
  <path class="st33" d="M261.81,557.57l-48.6,5.62c-.3.03-.57-.14-.67-.42-.49-1.39-.84-2.82-1.05-4.27-3.89-26.66-7.72-53.44-11.5-80.33l48.14-4.26c.27-.03.52.16.56.44l5.86,38.24c.1.67-.35,1.29-1.02,1.39h-.06l-44.69,4.67c-1.05.11-1.81,1.05-1.7,2.1.02.17.06.34.12.5l.07.16c.45.99,1.48,1.58,2.56,1.46l44.9-5.17c.34-.04.64.19.69.52l6.39,39.34h0Z"/>
  <path class="st33" d="M377.99,475.38l4.09,23.96c.06.38-.19.74-.58.81h-.03l-36.56,4.21c-.37.04-.7-.21-.77-.57l-4.09-23.96c-.06-.38.19-.74.58-.81h.03l36.56-4.21c.37-.04.7.21.77.57Z"/>
  <path class="st33" d="M302.14,508.2l-3.67-23.94c-.06-.38.2-.73.58-.79h.02l36.75-4.23c.37-.04.7.21.76.58l3.66,23.94c.06.38-.2.73-.58.79h-.02l-36.74,4.23c-.37.04-.7-.21-.76-.58Z"/>
  <path class="st33" d="M468.57,494.95l6.67,36.55c.07.39-.19.77-.58.84h-.05l-40.2,4.82c-.67-1.77-1.16-3.77-1.47-5.98-1.46-10.34-3.54-20.59-5.3-30.86-.09-.56.29-1.09.85-1.18h.05l40.03-4.19h0Z"/>
  <path class="st33" d="M430.98,537.59l-38.21,4.59c-.13-3.43-.54-6.83-1.22-10.19-1.15-5.71-1.76-8.72-1.81-9.03-.83-4.87-1.92-10.87-3.28-18.01-.11-.55.26-1.09.81-1.2.02,0,.05,0,.08-.01l35.66-4.11c.48-.05.91.28,1,.75l5.77,33.82c.03.15.07.31.12.46l1.08,2.93h0Z"/>
  <path class="st33" d="M389.57,542.55l-80.87,9.53-5.79-38.18c-.07-.51.28-.98.79-1.06h.03l36.66-4.23c.45-.05.86.26.94.7l6.07,35.56c.12.71.64,1.28,1.34,1.46l.34.09c.84.17,1.66-.37,1.83-1.21.04-.19.04-.38.01-.56l-5.87-35.07c-.09-.56.28-1.08.84-1.17h.05l35.75-4.12c.41-.04.79.23.87.63,1.91,9.31,3.48,18.59,4.71,27.84.32,2.38,1.09,5.65,2.3,9.8h0Z"/>
  <path class="st33" d="M305.59,552.43l-40.18,4.71c-1.61-13.13-3.7-26.12-6.27-38.99-.09-.48.22-.95.7-1.04.05-.01.1-.02.16-.02,6.16-.14,12.11-1.3,18.23-1.82,6.96-.59,13.53-1.68,20.05-2.28.4-.03.76.25.83.64l6.48,38.8h0Z"/>
  <path class="st35" d="M575.82,955.97c2.75-4.4,5.46-8.72,8.13-12.97,3.12-4.95,5.75-9.33,7.88-13.12,23.93-42.63,42.59-87.69,58.3-134.99,4.79-14.4,8.26-27.65,10.43-39.75.02-.08-.03-.16-.11-.18-.05-.01-.11,0-.15.05-.65.73-1.07,1.32-1.27,1.79-1.85,4.29-4.08,8.24-6.37,13.19-13.35,28.79-24.97,52.83-34.85,72.12-13.93,27.2-29.2,54.03-47.09,79.62-1.69,2.42-4.67,6.35-8.92,11.8-.35.45-.69.96-1.03,1.53-.03-.29-.18-.4-.45-.32-.05.01-.09.04-.12.08-4.99,6.07-10.66,11.62-16.99,16.63-11.8,9.33-25.66,14.27-40.74,12.36-5.66-.72-12.61-2.46-18.13-4.64-22.51-8.88-42.94-21.91-62.18-36.09-18.85-13.9-37.01-28.56-54.48-43.99-3.63-2.93-6.78-6.18-9.44-9.74-1.69-2.25-2.95-4.86-3.79-7.83-1.25-4.44-2.09-8.76-2.5-12.95-.85-7.96-1.03-15.49-.55-22.59.55.87.95,1.22,1.19,1.05.4-.29.94-.27,1.3.06,20.2,18.17,39.34,34.36,57.43,48.58,22.01,17.3,45.06,31.99,69.16,44.08,4.83,2.42,10.73,4.77,17.7,7.05,4.62,1.51,9.57,2.1,14.84,1.77,9.21-.59,18.41-7.46,24.64-13.91,8.8-9.09,16.96-19.18,24.49-30.27,10.91-16.05,21.23-32.97,30.98-50.75,16.15-29.47,31.01-59.36,44.57-89.68,9.87-22.07,17.85-42.86,23.94-62.37.65-2.11.95-5.39.88-9.84-.45-29.13-6.98-56.68-19.6-82.67-3.22-6.63-6.35-12.09-9.39-16.37-6.42-9.05-11.8-15.77-16.13-20.14-5.62-5.67-11.23-10.3-16.84-13.88-7.55-4.83-14.91-7.21-23.48-9.79-.54-.16-1.22-.48-2.03-.96-.23-.14-.3-.43-.16-.66.08-.14.22-.22.38-.23,6.05-.31,11.94.79,17.69,3.3,11.02,4.81,20.86,11.79,29.52,20.93,5.07,5.37,8.82,9.71,11.23,13.03,10.39,14.27,18.5,30.34,24.33,48.2,6.92,21.15,10.59,43.38,11,66.71.29,16-1.69,31.86-5.92,47.58-.09.3-.11.5-.06.59.16.33.57.46.91.3.06-.03.11-.06.15-.11,6.11-5.59,11.72-11.95,16.84-19.08,8.73-12.12,15.28-24.65,19.66-37.59.34-1.01.59-2,.76-2.97.07-.39.46-.65.88-.57.06.01.13.03.19.06.23.11.4.35.51.73.37,1.27.55,3.22.55,5.85-.01,20.82-5.2,39.41-15.21,57.28-.69,1.22-.83,2.97-.43,5.24,8.75,50.2,16.93,96.73,24.54,139.58,5.96,33.56,10.54,60.02,13.74,79.38.06.38-.2.74-.58.8h-.11l-149.64-.33h0Z"/>
  <path class="st32" d="M110.33,536.88c-.47,3-1.64,9.15,2.93,8.91,3.17-.17,6.33-.43,9.49-.77,5.36-.59,20.78-2.5,46.25-5.75,1.19-.15,2.52-.43,4.01-.84,1.97,14.79,3.89,29.6,5.77,44.42.31,2.48.64,4.27.98,5.37.41,1.38,1.27,2.54,2.58,3.49,3.7,2.69,7.92,3.9,12.67,3.63-10.67,2.17-20.93,3.36-30.76,3.57-6.46.13-12.98-1.61-18.8-5.06-3.75-2.23-5.75-3.42-5.99-3.57-11.77-7.46-24.84-15.64-39.21-24.55-12.5-7.74-21.61-13.51-27.33-17.31-1.32-.88-2.36-1.91-3.13-3.1-.4-.62-.25-1.45.34-1.9,2.05-1.54,4.26-2.49,6.63-2.85,11.01-1.67,22.2-2.9,33.57-3.69h0Z"/>
  <path class="st38" d="M972.99,608.53v38.15l-5.32,1.25c-.22.05-.45-.04-.57-.23-.58-.91-1.11-1.31-1.6-1.2l-3.88-35.86,11.37-2.11h0Z"/>
  <path class="st32" d="M350.08,684.26l22.01,19.29c.31.28.79.24,1.06-.08.13-.15.2-.36.19-.56,0-.03-.09-.17-.26-.44-1.61-2.51-4.12-5.26-7.53-8.25-5.04-4.43-10.09-8.91-15.16-13.44-1.86-6.19-.65-10.52,3.64-13,3.46-2,6.85-1.66,10.18,1.03,4.14,3.34,9.5,7.9,13.2,12.5,4.53,5.63,8.57,11.11,12.1,16.44,6.32,9.54,9.83,20.9,11.66,32.28l.67,25.32c-16.18-2.04-29.92,2.47-41.22,13.52-4.5,4.41-9.3,9.88-14.41,16.43v-.68c.01-.35-.27-.64-.62-.65-.18,0-.34.07-.47.2-7.99,8.38-15.18,15.83-27.97,10.49-13.49-5.63-25.6-13.95-36.33-24.98-6.87-7.07-12.98-13.57-18.32-19.51-7.44-8.28-13.63-14.71-18.56-19.28-7.44-6.9-16.07-14.42-25.1-20.62-2.79-1.92-5.75-4.09-8.88-6.51-1.8-1.4-3.79-3.01-5.97-4.82-.95-2.97-.49-5.74,1.38-8.31,2.49-3.41,5.58-4.98,9.27-4.69,12.71,4.51,24.55,10.41,35.52,17.68,5,3.31,9.81,6.66,14.43,10.04.39.29.94.2,1.23-.19.07-.1.12-.21.15-.33,0-.01-.06-.14-.19-.37-1.32-2.29-3.29-4.51-5.91-6.65-13.01-10.63-27.48-18.48-43.41-23.56-.18-.06-.34-.15-.49-.26l-1.27-1c-.22-.18-.54-.14-.72.09-.05.06-.08.13-.1.21-.03.16-.04.34,0,.54-1.47-4.78-.46-8.55,3.03-11.31,3.58-2.84,8.48-3.18,13.11-3.18,2.91,0,5.46.32,7.63.95,16.22,4.63,31.2,11.8,44.95,21.52,2.28,1.62,4.45,2.71,6.51,3.28.2.06.41-.06.47-.27.03-.12,0-.24-.07-.34-.39-.51-.88-1.04-1.45-1.58-9.26-8.67-20.33-14.61-32.53-19.86-5.39-2.33-10.93-4.2-16.62-5.61-.31-.07-.6-.23-.84-.45-.69-.65-1.05-.66-1.09-.04-3.93-14.35,13.04-13.35,20.9-11.12,3.77,1.07,7.01,1.71,9.71,1.92,1.65.81,4.23,1.85,7.73,3.14,5.38,1.97,11.08,4.69,17.11,8.16,6.67,3.85,13.97,8.63,21.89,14.35.46.33,1.1.29,1.51-.11l.03-.03c.35-.34.36-.91.02-1.26-.02-.02-.04-.04-.06-.06-13.65-11.73-27.38-20.02-41.17-24.87-3.25-1.14-5.82-2.21-7.71-3.2-.26-3.23.98-5.67,3.72-7.31,5.45-3.26,14.68-1.6,20.29.48,7.85,2.91,15.94,7.07,24.26,12.48,12.21,7.94,23.83,16.75,34.88,26.44h0Z"/>
  <path class="st30" d="M972.99,646.68l-.22,101.07c0,.11-.09.2-.21.21h-.01c-.12,0-.22-.1-.23-.22l-6.82-101.24c.49-.11,1.02.29,1.6,1.2.12.19.35.28.57.23l5.32-1.25h0Z"/>
  <path class="st38" d="M250.34,760.68c1.65-.5,4.41-1.58,6.14-.66.16.08.35.02.43-.13.06-.11.05-.24-.02-.34-7.93-11.21-16.89-21.56-26.88-31.06-3.14-2.99-10.9-9.63-23.27-19.9-1.85-2.71-2.76-5.92-2.75-9.65,2.18,1.81,4.17,3.42,5.97,4.82,3.13,2.42,6.09,4.59,8.88,6.51,9.03,6.2,17.66,13.72,25.1,20.62,4.93,4.57,11.12,11,18.56,19.28,5.34,5.94,11.45,12.44,18.32,19.51,10.73,11.03,22.84,19.35,36.33,24.98,12.79,5.34,19.98-2.11,27.97-10.49.25-.25.65-.26.9-.02.13.12.2.29.2.47v.68c-5.62,8.09-8.95,17.06-10.02,26.92-18.05-3.51-35.21-12.1-49.96-22.92-.63-.46-1.44-.62-2.21-.42-32.82,8.37-60.58,15.33-83.28,20.89-5.22,1.28-8.6-1.03-12.91-4.38-6.83-5.32-10.29-8.01-10.38-8.08-5.91-4.43-42.52-31.57-109.82-81.44-12.5-9.27-23.59-17.59-33.28-24.98-2.57-1.96-5.02-3.54-7.33-4.73l.02-35.92c11.51,7.93,22.83,15.88,33.94,23.85,47.49,34.07,93.45,65.41,138.09,98.93.3.22.68.3,1.05.21l50.21-12.55h0Z"/>
  <path class="st38" d="M267.58,656.05l-.65-3.88c1.89.99,4.46,2.06,7.71,3.2,13.79,4.85,27.52,13.14,41.17,24.87.37.33.42.89.09,1.26-.02.02-.04.04-.05.06l-.03.03c-.41.4-1.05.44-1.51.11-7.92-5.72-15.22-10.5-21.89-14.35-6.03-3.47-11.73-6.19-17.11-8.16-3.5-1.29-6.08-2.33-7.73-3.14h0Z"/>
  <path class="st38" d="M237.64,668.6l-.67-3.35c.04-.62.4-.61,1.09.04.24.22.53.38.84.45,5.69,1.41,11.23,3.28,16.62,5.61,12.2,5.25,23.27,11.19,32.53,19.86.57.54,1.06,1.07,1.45,1.58.13.17.1.42-.07.55-.09.07-.22.1-.33.06-2.06-.57-4.23-1.66-6.51-3.28-13.75-9.72-28.73-16.89-44.95-21.52h0Z"/>
  <path class="st38" d="M350.08,684.26l.31-3.48c5.07,4.53,10.12,9.01,15.16,13.44,3.41,2.99,5.92,5.74,7.53,8.25.17.27.26.41.26.44.02.42-.29.79-.71.82-.2.02-.39-.05-.54-.18l-22.01-19.29h0Z"/>
  <path class="st38" d="M214.64,685.94c.17-1.23-.09-2.49-.77-3.8-.03-.2-.02-.38,0-.54.06-.28.34-.46.61-.4.08.02.15.05.21.1l1.27,1c.15.11.31.2.49.26,15.93,5.08,30.4,12.93,43.41,23.56,2.62,2.14,4.59,4.36,5.91,6.65.13.23.2.36.19.37-.1.47-.57.77-1.05.67-.12-.03-.23-.08-.33-.15-4.62-3.38-9.43-6.73-14.43-10.04-10.97-7.27-22.81-13.17-35.52-17.68h0Z"/>
  <path class="st30" d="M336.2,812.22c-.17,4.14.13,9.3.9,15.49,1.25,10.17,6.2,17.13,14.85,20.86.41,4.19,1.25,8.51,2.5,12.95.84,2.97,2.1,5.58,3.79,7.83,2.66,3.56,5.81,6.81,9.44,9.74l-142.15,37.42c-.1.03-.2.04-.3.05l-42.84.56c-.3,0-.55-.25-.55-.55v-90.09c0-.3-.14-.58-.37-.77l-153.73-120.8c-.45-.35-.72-.9-.72-1.47v-17.28c2.32,1.19,4.77,2.77,7.34,4.73,9.69,7.39,20.78,15.71,33.28,24.98,67.3,49.87,103.91,77.01,109.82,81.44.09.07,3.55,2.76,10.38,8.08,4.31,3.35,7.69,5.66,12.91,4.38,22.7-5.56,50.46-12.52,83.28-20.89.77-.2,1.58-.04,2.21.42,14.75,10.82,31.91,19.41,49.96,22.92h0Z"/>
  <path class="st38" d="M496.89,704.92l-12.98,42.3c-19.15,4.47-40.47,9.87-63.97,16.21-1.07.29-1.59.84-1.55,1.66-.57-.47-1.36-.57-2.37-.31.54-.65.51-1.21-.09-1.68-4.3-3.39-9-5.97-14.09-7.75l-.67-25.32,93.12-23.42c.31-.08.58-.26.76-.52.97-1.39,1.59-1.78,1.84-1.17Z"/>
  <path class="st32" d="M250.34,760.68c-8.93-8.47-17.77-16.96-26.54-25.48-2.83-2.75-7.49-8-14-15.73-2.93-3.49-3.95-7.11-3.06-10.88,12.37,10.27,20.13,16.91,23.27,19.9,9.99,9.5,18.95,19.85,26.88,31.06.1.14.07.34-.07.45-.1.07-.23.08-.34.02-1.73-.92-4.49.16-6.14.66h0Z"/>
  <path class="st30" d="M483.91,747.22l-14.65,45.66c-.12.38-.53.59-.9.47-.07-.02-.14-.05-.2-.1-15.72-10.84-32.31-20.23-49.77-28.16-.04-.82.48-1.37,1.55-1.66,23.5-6.34,44.82-11.74,63.97-16.21Z"/>
  <path class="st0" d="M575.82,955.97l-13.83.28c-.32,0-.58-.25-.59-.57h0l-.63-20.62c.34-.57.68-1.08,1.03-1.53,4.25-5.45,7.23-9.38,8.92-11.8,17.89-25.59,33.16-52.42,47.09-79.62,9.88-19.29,21.5-43.33,34.85-72.12,2.29-4.95,4.52-8.9,6.37-13.19.2-.47.62-1.06,1.27-1.79.05-.06.15-.07.21-.02.04.04.06.09.05.15-2.17,12.1-5.64,25.35-10.43,39.75-15.71,47.3-34.37,92.36-58.3,134.99-2.13,3.79-4.76,8.17-7.88,13.12-2.67,4.25-5.38,8.57-8.13,12.97Z"/>
  <path class="st37" d="M401.84,755.35c5.09,1.78,9.79,4.36,14.09,7.75.6.47.63,1.03.09,1.68-2.65.11-5.31.26-8,.44-12.36.83-23.17,5.29-32.43,13.38-10.91,9.52-19.67,23.61-22.9,37.83-.72,3.17-1.15,6.36-1.29,9.55-.48,7.1-.3,14.63.55,22.59-8.65-3.73-13.6-10.69-14.85-20.86-.77-6.19-1.07-11.35-.9-15.49,1.07-9.86,4.4-18.83,10.01-26.92,5.11-6.55,9.91-12.02,14.41-16.43,11.3-11.05,25.04-15.56,41.22-13.52h0Z"/>
  <path class="st35" d="M468.46,795.86c-.04.25-1.51,5.43-4.42,15.53-1.93,6.71-3.22,11.93-3.87,15.65-1.89,10.8-2.64,21.12-2.27,30.95.01.38-.29.7-.67.71h-.09s-.05-.01-.12-.04c-.1-.04-.17-.08-.19-.11-4.1-6.08-6.49-12.61-7.18-19.59-1.18-11.98,4.76-24.75,11.17-35.6,1.61-2.71,3.74-5.42,6.4-8.13.28-.29.75-.29,1.03,0,.17.17.25.4.21.64h0Z"/>
  <path class="st33" d="M973.69,745.94c0,.11-.09.2-.21.21h-.01c-.12,0-.22-.1-.23-.22l-6.82-101.24-3.88-35.86c-2.84-22.29-5.83-44.58-9.94-66.58-3.85-20.59-7.52-39.14-14.81-56.94-8.86-21.62-25.48-37.05-45.97-48.31-11.01-6.05-22.54-11.42-34.59-16.1l-22.43-7.58c-1.09-.37-2.01-1.1-2.62-2.07-3.73-5.95-7.69-12-11.86-18.16-4.43-6.54-7.54-10.77-9.35-12.69-1.51-1.61-3.23-2.91-5.16-3.88-4.35-1.53-8.34-2.4-11.99-2.6-14.56.62-28.91,2.68-43.04,6.18-18.79,4.66-37.02,11.14-54.41,20.55-11.03,5.97-21.45,13.79-31.26,23.46-10.98,10.82-20.08,21.86-26.75,35.56-2.48,5.1-4.75,10.32-6.82,15.65-.22.56-.63,1.03-1.17,1.31-22.71,12.11-43.89,26.34-63.56,42.69-3.67,3.05-8.36,7.77-14.07,14.18-12.8,14.34-18.41,30.59-23.03,49.09-10.09,40.37-20.73,80.55-31.9,120.52l-12.98,42.3-14.65,45.66c-.02.07-.05.14-.1.2-.23.33-.68.4-1,.17-15.72-10.84-32.31-20.23-49.77-28.16-.57-.47-1.36-.57-2.37-.31-2.65.11-5.31.26-8,.44-12.36.83-23.17,5.29-32.43,13.38-10.91,9.52-19.67,23.61-22.9,37.83-.72,3.17-1.15,6.36-1.29,9.55.55.87.95,1.22,1.19,1.05.4-.29.94-.27,1.3.06,20.2,18.17,39.34,34.36,57.43,48.58,22.01,17.3,45.06,31.99,69.16,44.08,4.83,2.42,10.73,4.77,17.7,7.05,4.62,1.51,9.57,2.1,14.84,1.77,9.21-.59,18.41-7.46,24.64-13.91,8.8-9.09,16.96-19.18,24.49-30.27,10.91-16.05,21.23-32.97,30.98-50.75,16.15-29.47,31.01-59.36,44.57-89.68,9.87-22.07,17.85-42.86,23.94-62.37.65-2.11.95-5.39.88-9.84-.45-29.13-6.98-56.68-19.6-82.67-3.22-6.63-6.35-12.09-9.39-16.37-6.42-9.05-11.8-15.77-16.13-20.14-5.62-5.67-11.23-10.3-16.84-13.88-7.55-4.83-14.91-7.21-23.48-9.79-.54-.16-1.22-.48-2.03-.96-.14-.08-.22-.22-.23-.38-.02-.26.19-.49.45-.51,6.05-.31,11.94.79,17.69,3.3,11.02,4.81,20.86,11.79,29.52,20.93,5.07,5.37,8.82,9.71,11.23,13.03,10.39,14.27,18.5,30.34,24.33,48.2,6.92,21.15,10.59,43.38,11,66.71.29,16-1.69,31.86-5.92,47.58-.09.3-.11.5-.06.59.03.06.06.11.1.15.25.27.68.29.96.04,6.11-5.59,11.72-11.95,16.84-19.08,8.73-12.12,15.28-24.65,19.66-37.59.34-1.01.59-2,.76-2.97,0-.06.03-.12.05-.17.17-.36.62-.51,1.02-.34.23.11.4.35.51.73.37,1.27.55,3.22.55,5.85-.01,20.82-5.2,39.41-15.21,57.28-.69,1.22-.83,2.97-.43,5.24,8.75,50.2,16.93,96.73,24.54,139.58,5.96,33.56,10.54,60.02,13.74,79.38v.11c0,.32-.21.58-.5.66,2.24,6.76,268.7-8.65,268.7-8.65l-21.58-199.86h0ZM464.96,809.58c-1.93,6.71-3.22,11.93-3.87,15.65-1.89,10.8-2.64,21.12-2.27,30.95v.09c-.04.38-.38.65-.76.62-.01,0-.05-.01-.12-.04-.1-.04-.17-.08-.19-.11-4.1-6.08-6.49-12.61-7.18-19.59-1.18-11.98,4.76-24.75,11.17-35.6,1.61-2.71,3.74-5.42,6.4-8.13.17-.17.4-.25.64-.21.4.06.67.44.6.84-.04.25-1.51,5.43-4.42,15.53h0ZM828.56,413.08c-1.97.26-4.13.33-6.49.2-.38-.02-.76,0-1.13.04-40.26,5.11-79.58,14.85-117.88,28.29-21.55,7.57-41.96,17.35-61.25,29.35-.05.03-.11.06-.17.07-.36.1-.73-.11-.83-.47-.11-.35-.02-.67.27-.94,10.85-10.29,23.68-17.27,38.24-24.26,29.44-14.12,60.78-24.27,92.87-31.35,12.29-2.71,24.49-4.56,36.58-5.57,6.75-.56,14.71-.93,20.12,3.48.13.1.21.25.23.41.05.36-.2.7-.56.75h0Z"/>
</svg>